<svg width="21" height="20" viewBox="0 0 21 20" fill="none" xmlns="http://www.w3.org/2000/svg">
    <path
        d="M19.25 10C19.25 14.83 15.3344 18.75 10.5 18.75C5.66562 18.75 1.75 14.83 1.75 10C1.75 5.16562 5.66562 1.25 10.5 1.25C15.3344 1.25 19.25 5.16562 19.25 10Z"
        fill="#283544" />
    <path
        d="M14.6013 7.78587C14.5536 7.81372 13.4169 8.40155 13.4169 9.70491C13.4705 11.1913 14.8513 11.7126 14.875 11.7126C14.8513 11.7404 14.6665 12.4227 14.1192 13.1378C13.6848 13.7539 13.2026 14.375 12.4705 14.375C11.7741 14.375 11.5241 13.9644 10.7205 13.9644C9.85752 13.9644 9.61334 14.375 8.95262 14.375C8.22048 14.375 7.70262 13.7206 7.24455 13.1103C6.64944 12.3116 6.14361 11.0582 6.12575 9.85467C6.11372 9.21692 6.24493 8.59002 6.57801 8.05754C7.04812 7.31416 7.8874 6.80952 8.80394 6.79288C9.5062 6.77082 10.1312 7.24217 10.5598 7.24217C10.9705 7.24217 11.7383 6.79288 12.6071 6.79288C12.9821 6.79325 13.9821 6.89851 14.6013 7.78587ZM10.5004 6.66555C10.3754 6.08315 10.7205 5.50074 11.0419 5.12923C11.4526 4.67995 12.1013 4.375 12.6607 4.375C12.6964 4.9574 12.4701 5.5286 12.0656 5.9446C11.7026 6.39388 11.0776 6.73211 10.5004 6.66555Z"
        fill="white" />
</svg>
