<svg width="16" height="17" viewBox="0 0 16 17" fill="none" xmlns="http://www.w3.org/2000/svg">
    <path
        d="M11.3563 8.14409L6.35625 3.14409C6.28396 3.07626 6.19394 3.03029 6.09661 3.01148C5.99927 2.99268 5.89861 3.00182 5.80625 3.03784C5.71525 3.07609 5.63761 3.14042 5.58311 3.22273C5.52861 3.30503 5.49969 3.40163 5.5 3.50034V13.5003C5.49969 13.5991 5.52861 13.6957 5.58311 13.778C5.63761 13.8603 5.71525 13.9246 5.80625 13.9628C5.86793 13.9873 5.93364 14.0001 6 14.0003C6.13277 13.9998 6.26027 13.9483 6.35625 13.8566L11.3563 8.85659C11.4501 8.7618 11.5028 8.63377 11.5028 8.50034C11.5028 8.36692 11.4501 8.23889 11.3563 8.14409Z"
        fill="#DC593B" />
</svg>
