<svg width="11" height="11" viewBox="0 0 11 11" fill="none" xmlns="http://www.w3.org/2000/svg">
    <g clip-path="url(#clip0_1_1148)">
        <path
            d="M6.12369 1.75C6.28153 1.75 6.43644 1.79269 6.572 1.87357C6.70755 1.95444 6.81871 2.07047 6.89369 2.20938L7.10631 2.60312C7.18129 2.74203 7.29245 2.85806 7.428 2.93893C7.56356 3.01981 7.71847 3.0625 7.87631 3.0625H8.75C8.98206 3.0625 9.20462 3.15469 9.36872 3.31878C9.53281 3.48288 9.625 3.70544 9.625 3.9375V7.875C9.625 8.10706 9.53281 8.32962 9.36872 8.49372C9.20462 8.65781 8.98206 8.75 8.75 8.75H1.75C1.51794 8.75 1.29538 8.65781 1.13128 8.49372C0.967187 8.32962 0.875 8.10706 0.875 7.875V3.9375C0.875 3.70544 0.967187 3.48288 1.13128 3.31878C1.29538 3.15469 1.51794 3.0625 1.75 3.0625H2.62369C2.78137 3.06251 2.93613 3.01991 3.07159 2.9392C3.20706 2.85849 3.31819 2.74267 3.39325 2.604L3.60719 2.2085C3.68225 2.06983 3.79338 1.95401 3.92885 1.8733C4.06431 1.79259 4.21907 1.74999 4.37675 1.75H6.12369Z"
            stroke="white" stroke-width="0.875" stroke-linecap="round" stroke-linejoin="round" />
        <path
            d="M5.25 7C5.97487 7 6.5625 6.41237 6.5625 5.6875C6.5625 4.96263 5.97487 4.375 5.25 4.375C4.52513 4.375 3.9375 4.96263 3.9375 5.6875C3.9375 6.41237 4.52513 7 5.25 7Z"
            stroke="white" stroke-width="0.875" stroke-linecap="round" stroke-linejoin="round" />
    </g>
    <defs>
        <clipPath id="clip0_1_1148">
            <rect width="10.5" height="10.5" fill="white" />
        </clipPath>
    </defs>
</svg>
