<svg width="25" height="24" viewBox="0 0 25 24" fill="none" xmlns="http://www.w3.org/2000/svg">
    <path
        d="M23.775 11.5708L22.8182 12.5276C22.4834 12.2289 22.0959 11.9951 21.6755 11.8383L21.29 11.1082L22.3013 10.097C22.4968 9.9021 22.7617 9.79275 23.0378 9.79297C23.3139 9.79319 23.5786 9.90297 23.7738 10.0982C23.9691 10.2934 24.0788 10.5581 24.0791 10.8342C24.0793 11.1103 23.9699 11.3752 23.775 11.5708Z"
        fill="white" />
    <path
        d="M2.79356 11.1128L2.75275 11.1853L2.39451 11.8383V11.8428C1.9768 11.9975 1.59213 12.2298 1.26085 12.5276L0.304044 11.5708C0.10913 11.3752 -0.000221272 11.1103 3.36175e-07 10.8342C0.000221945 10.5581 0.109998 10.2934 0.305226 10.0982C0.500453 9.90297 0.765175 9.79319 1.04127 9.79297C1.31736 9.79275 1.58226 9.9021 1.7778 10.097L2.79356 11.1128Z"
        fill="white" />
    <path
        d="M20.5285 11.612C20.4878 11.6082 20.4469 11.6067 20.406 11.6075H3.67322C3.63235 11.6067 3.59148 11.6082 3.55078 11.612L6.0176 6.99121C6.12136 6.83178 6.26313 6.70066 6.43015 6.60963C6.59718 6.5186 6.78421 6.47052 6.97443 6.46973H13.6267C14.0648 6.9235 14.3474 7.50465 14.4339 8.1294C14.4673 8.35542 14.581 8.56185 14.7542 8.71092C14.9273 8.85999 15.1483 8.94173 15.3768 8.94118C15.6053 8.94063 15.8259 8.85784 15.9983 8.70794C16.1708 8.55804 16.2835 8.35107 16.3158 8.12489C16.4039 7.50103 16.6882 6.92137 17.1275 6.46975C17.3138 6.47427 17.4963 6.52411 17.6591 6.61497C17.8218 6.70584 17.96 6.83498 18.0617 6.99123L20.5285 11.612Z"
        fill="white" />
    <path
        d="M3.22473 21.9372H5.95458V22.767C5.95424 23.094 5.82418 23.4076 5.59294 23.6388C5.3617 23.87 5.04818 24.0001 4.72116 24.0004H3.57389C3.41162 24.0007 3.25088 23.9691 3.10084 23.9072C2.95081 23.8454 2.81442 23.7546 2.69947 23.6401C2.58451 23.5256 2.49324 23.3895 2.43087 23.2397C2.36849 23.0899 2.33623 22.9293 2.33594 22.767V21.8057C2.62403 21.8934 2.92358 21.9377 3.22473 21.9372Z"
        fill="white" />
    <path
        d="M20.8549 21.9372C21.156 21.9377 21.4556 21.8934 21.7436 21.8057V22.767C21.7433 22.9293 21.7111 23.0899 21.6487 23.2397C21.5863 23.3895 21.4951 23.5256 21.3801 23.6401C21.2652 23.7546 21.1288 23.8454 20.9787 23.9072C20.8287 23.9691 20.668 24.0007 20.5057 24.0004H19.3584C19.0314 24.0001 18.7179 23.87 18.4866 23.6388C18.2554 23.4076 18.1253 23.094 18.125 22.767V21.9372H20.8549Z"
        fill="white" />
    <path
        d="M6.43299 2.11183C6.87384 2.24759 7.26637 2.50721 7.56384 2.85976C7.8613 3.21231 8.05117 3.64293 8.11081 4.10033C8.11178 4.11084 8.11664 4.12061 8.12443 4.12772C8.13223 4.13483 8.1424 4.13877 8.15296 4.13877C8.16351 4.13877 8.17368 4.13483 8.18148 4.12772C8.18927 4.12061 8.19413 4.11084 8.1951 4.10033C8.25475 3.64293 8.44461 3.21231 8.74207 2.85976C9.03954 2.50721 9.43207 2.24759 9.87292 2.11183C9.88308 2.1103 9.89235 2.10517 9.89904 2.09738C9.90574 2.08959 9.90943 2.07966 9.90943 2.06939C9.90943 2.05911 9.90574 2.04918 9.89904 2.04139C9.89235 2.0336 9.88308 2.02848 9.87292 2.02694C9.43207 1.89118 9.03954 1.63156 8.74207 1.27901C8.44461 0.926464 8.25475 0.495842 8.1951 0.0384365C8.19413 0.027929 8.18927 0.0181625 8.18148 0.0110521C8.17368 0.00394164 8.16351 0 8.15296 0C8.1424 0 8.13223 0.00394164 8.12443 0.0110521C8.11664 0.0181625 8.11178 0.027929 8.11081 0.0384365C8.05117 0.495841 7.8613 0.926463 7.56384 1.27901C7.26637 1.63156 6.87384 1.89118 6.43299 2.02694C6.42284 2.02848 6.41357 2.0336 6.40687 2.04139C6.40017 2.04918 6.39648 2.05911 6.39648 2.06939C6.39648 2.07966 6.40017 2.08959 6.40687 2.09738C6.41357 2.10517 6.42284 2.1103 6.43299 2.11183Z"
        fill="white" />
    <path
        d="M17.9212 5.03606C17.5159 5.1285 17.134 5.30345 16.7993 5.54999C16.4646 5.79652 16.1843 6.10936 15.9758 6.469C15.6897 6.93397 15.5014 7.45242 15.4226 7.99264C15.4214 8.00384 15.4161 8.0142 15.4077 8.02174C15.3994 8.02927 15.3885 8.03343 15.3772 8.03343C15.366 8.03343 15.3551 8.02927 15.3467 8.02174C15.3384 8.0142 15.3331 8.00384 15.3319 7.99264C15.253 7.45242 15.0648 6.93397 14.7787 6.469C14.5702 6.10936 14.2899 5.79652 13.9552 5.54998C13.6205 5.30344 13.2386 5.1285 12.8333 5.03606C12.8231 5.03516 12.8136 5.03047 12.8067 5.02292C12.7997 5.01536 12.7959 5.00548 12.7959 4.99523C12.7959 4.98498 12.7997 4.97511 12.8067 4.96755C12.8136 4.95999 12.8231 4.9553 12.8333 4.95441C14.0849 4.71407 15.1142 3.48972 15.3319 1.99783C15.3331 1.98663 15.3384 1.97626 15.3467 1.96873C15.3551 1.9612 15.366 1.95703 15.3772 1.95703C15.3885 1.95703 15.3994 1.9612 15.4077 1.96873C15.4161 1.97626 15.4214 1.98663 15.4226 1.99783C15.6402 3.48972 16.6696 4.71407 17.9212 4.95441C17.9314 4.95529 17.9409 4.95998 17.9478 4.96753C17.9548 4.97509 17.9586 4.98498 17.9586 4.99523C17.9586 5.00549 17.9548 5.01537 17.9478 5.02293C17.9409 5.03049 17.9314 5.03517 17.9212 5.03606Z"
        fill="white" />
    <path
        d="M17.6738 17.5275V17.8211H23.1178V16.0156H19.1857C18.7849 16.0161 18.4006 16.1756 18.1172 16.459C17.8338 16.7424 17.6743 17.1267 17.6738 17.5275Z"
        fill="white" />
    <path
        d="M16.7663 17.9574V17.5278C16.767 16.8866 17.0221 16.2717 17.4755 15.8183C17.929 15.3648 18.5438 15.1098 19.1851 15.1091H23.1107C23.0956 14.7391 23.0047 14.3762 22.8435 14.0429C22.6824 13.7095 22.4545 13.4128 22.174 13.1712C22.1524 13.1502 22.1297 13.1306 22.106 13.1122C21.795 12.8596 21.4306 12.6813 21.0403 12.5908C20.8325 12.5398 20.6194 12.5139 20.4055 12.5137H3.67265C3.45871 12.5139 3.24557 12.5398 3.0378 12.5908C2.64755 12.6813 2.2831 12.8596 1.97216 13.1122C1.94838 13.1306 1.92567 13.1502 1.90414 13.1712C1.62362 13.4128 1.39573 13.7095 1.23459 14.0429C1.07346 14.3762 0.982517 14.7391 0.967408 15.1091H4.89301C5.5343 15.1098 6.14912 15.3648 6.60258 15.8183C7.05604 16.2717 7.3111 16.8866 7.31178 17.5278V17.9574C7.31155 18.1618 7.23025 18.3578 7.08572 18.5023C6.94118 18.6468 6.74521 18.7281 6.54081 18.7284H0.960938V18.7669C0.960947 19.2103 1.09116 19.6439 1.33542 20.0139C1.57969 20.3839 1.92724 20.6741 2.33493 20.8483C2.61559 20.9692 2.91815 21.0309 3.22372 21.0297H20.8544C21.16 21.0309 21.4625 20.9692 21.7432 20.8483C22.1509 20.6741 22.4984 20.3839 22.7427 20.0139C22.987 19.6439 23.1172 19.2103 23.1172 18.7669V18.7284H17.5373C17.3329 18.7281 17.1369 18.6468 16.9924 18.5023C16.8479 18.3578 16.7666 18.1618 16.7663 17.9574ZM15.6575 17.7302C15.6572 17.9799 15.5579 18.2194 15.3813 18.396C15.2047 18.5725 14.9653 18.6719 14.7156 18.6721H9.36256C9.11284 18.6719 8.87341 18.5725 8.69683 18.396C8.52024 18.2194 8.42092 17.98 8.42065 17.7302V16.4464C8.42091 16.1967 8.52023 15.9573 8.69681 15.7807C8.8734 15.6041 9.11283 15.5048 9.36256 15.5045H14.7156C14.9653 15.5048 15.2047 15.6041 15.3813 15.7807C15.5579 15.9573 15.6572 16.1967 15.6575 16.4464V17.7302Z"
        fill="white" />
    <path
        d="M14.7161 16.4111H9.36311C9.34379 16.4111 9.32812 16.4268 9.32812 16.4461V17.7299C9.32812 17.7492 9.34379 17.7649 9.36311 17.7649H14.7161C14.7354 17.7649 14.7511 17.7492 14.7511 17.7299V16.4461C14.7511 16.4268 14.7354 16.4111 14.7161 16.4111Z"
        fill="white" />
    <path
        d="M6.40486 17.5275C6.40437 17.1267 6.24493 16.7424 5.96151 16.459C5.67809 16.1756 5.29383 16.0161 4.89301 16.0156H0.960938V17.8211H6.40486V17.5275Z"
        fill="white" />
</svg>
