<svg width="24" height="24" viewBox="0 0 24 24" fill="none" xmlns="http://www.w3.org/2000/svg">
    <path fill-rule="evenodd" clip-rule="evenodd"
        d="M5.79962 23.5814C5.79962 23.804 5.61464 23.9867 5.3894 23.9877C5.18141 23.9451 3.19454 24.1013 3.12074 23.8683C3.04598 23.7945 2.99997 23.6932 2.99997 23.5824L2.99901 19.4811C2.99901 19.3693 3.04502 19.268 3.11882 19.1941C3.19358 19.1212 3.29613 19.0758 3.40923 19.0758C3.6153 19.1184 5.59739 18.9631 5.67885 19.1941C5.90313 18.947 5.76224 23.5785 5.79962 23.5814ZM7.25169 13.1384H6.54722C5.91465 13.1384 5.40091 13.6469 5.40091 14.2719V18.5644H3.41019L3.39773 18.5654V14.2719C3.39773 13.6488 2.88303 13.1383 2.25046 13.1383C1.65047 13.1592 0.87124 13.1724 0.454317 12.6895C0.174454 12.413 0 12.0304 0 11.61V5.97365C0 5.13273 0.696786 4.44525 1.54695 4.44525H7.25167C8.10181 4.44525 8.79957 5.13368 8.79862 5.97365V10.4926C8.79478 10.6138 8.80341 11.4727 8.79862 11.61C8.79862 12.451 8.10185 13.1384 7.25169 13.1384ZM2.38464 6.80122C2.38464 6.60047 2.21691 6.4357 2.01468 6.4357C1.81149 6.4357 1.64472 6.60047 1.64376 6.80122V10.7823C1.64376 10.983 1.81149 11.1478 2.01373 11.1478C2.21692 11.1478 2.38464 10.983 2.38464 10.7823V6.80122ZM4.82295 6.80122C4.82295 6.60047 4.65522 6.4357 4.45299 6.4357C4.2498 6.4357 4.08207 6.60047 4.08207 6.80122V10.7823C4.08207 10.983 4.2498 11.1478 4.45203 11.1478C4.65522 11.1478 4.82295 10.983 4.82295 10.7823V6.80122ZM7.26222 6.80122C7.26222 6.60047 7.09544 6.4357 6.89225 6.4357C6.68907 6.4357 6.52134 6.60047 6.52134 6.80122V10.7823C6.52134 10.983 6.68811 11.1478 6.8913 11.1478C7.09449 11.1478 7.26126 10.983 7.26222 10.7823V6.80122ZM21.1933 11.7614V9.31344H10.9157C10.9454 10.1865 10.8151 12.1912 11.0748 13.0113C12.6284 18.732 21.1147 17.6799 21.1933 11.7614ZM14.6555 19.9393C14.8089 19.7679 17.781 18.1306 18.0484 17.963V16.9876C16.8197 17.4649 15.29 17.4649 14.0613 16.9876C14.0996 17.9459 13.8399 19.2281 14.6555 19.9393ZM15.4367 22.6835C15.9696 23.2072 16.7804 22.406 16.2494 21.8805C15.7165 21.3558 14.9057 22.157 15.4367 22.6835ZM9.39654 9.97331C9.1272 10.9402 9.55277 12.3464 10.4901 12.7527C10.4307 12.4307 10.4 12.0993 10.4 11.7603L10.401 9.40801C9.9438 9.17032 9.54128 9.45723 9.39654 9.97331ZM12.4099 6.74522C12.5469 6.70924 12.6888 6.78973 12.7262 6.92609C12.7626 7.06151 12.6811 7.20165 12.5431 7.2386C12.0179 7.37875 11.437 7.38348 10.9156 7.2528L10.9166 8.80297H21.1932V7.2528C20.6728 7.38348 20.0919 7.37875 19.5667 7.2386C19.4296 7.20261 19.3472 7.06246 19.3836 6.92609C19.4201 6.79068 19.5619 6.70924 19.6999 6.74522C24.3493 7.5634 24.1521 0.515227 19.5485 1.59182C19.6501 1.89107 20.0977 2.47344 19.6645 2.6704C19.5274 2.70639 19.3856 2.6259 19.3482 2.48954C18.8124 0.224396 15.7953 -0.777582 13.9789 0.689361C13.3885 1.13634 12.9562 1.77078 12.7616 2.48954C12.7252 2.62495 12.5834 2.70639 12.4453 2.6704C12.0083 2.47533 12.4626 1.89107 12.5604 1.59371C7.95683 0.510379 7.76322 7.56728 12.4099 6.74522ZM22.7142 9.97331C22.5695 9.45817 22.1669 9.16934 21.7097 9.40798C21.6896 10.1277 21.7739 12.0727 21.6196 12.7527C22.5522 12.3815 22.9912 10.8606 22.7142 9.97331ZM13.5447 18.3633C12.2325 18.4589 10.2372 18.0034 9.35826 18.9987C8.89438 19.457 8.58384 20.118 8.43719 20.8349C8.40077 21.2023 7.93881 22.7998 8.07297 23.1426C8.19469 23.6218 8.65954 24.0034 9.17328 23.9873H13.5437V22.26C13.5456 21.511 13.7977 20.8348 14.2817 20.2903C13.768 19.7894 13.5083 19.0849 13.5447 18.3633ZM23.9756 23.1426C23.8529 23.6227 23.39 24.0044 22.8753 23.9883H14.0613C14.0958 23.189 13.9051 21.6957 14.3891 21.0121C14.7725 20.1352 17.596 18.9003 18.3743 18.3643L21.1518 18.3634C22.5636 18.3757 23.3429 19.5585 23.6104 20.8349C23.6497 21.19 24.1098 22.8141 23.9756 23.1426ZM15.843 21.2023C14.4149 21.2089 14.4149 23.3538 15.843 23.3604C17.2711 23.3538 17.2711 21.2089 15.843 21.2023Z"
        fill="white" />
</svg>
