<svg width="24" height="24" viewBox="0 0 24 24" fill="none" xmlns="http://www.w3.org/2000/svg">
    <path
        d="M12 7.5C14.0711 7.5 15.75 9.17893 15.75 11.25C15.75 13.3211 14.0711 15 12 15C9.92893 15 8.25 13.3211 8.25 11.25C8.25 9.17893 9.92893 7.5 12 7.5Z"
        stroke="#60778C" stroke-width="1.5" />
    <mask id="path-2-inside-1_2017_29465" fill="white">
        <path
            d="M12 3.75C17.0354 3.7501 21.3425 6.85314 23.123 11.25C21.3425 15.6469 17.0354 18.7499 12 18.75C6.96433 18.75 2.65542 15.6472 0.875 11.25C2.65542 6.8528 6.96433 3.75 12 3.75Z" />
    </mask>
    <path
        d="M12 3.75L12 2.25H12V3.75ZM23.123 11.25L24.5134 11.813L24.7414 11.25L24.5134 10.687L23.123 11.25ZM12 18.75V20.25H12L12 18.75ZM0.875 11.25L-0.515354 10.687L-0.743293 11.25L-0.515354 11.813L0.875 11.25ZM12 3.75L12 5.25C16.4027 5.25009 20.1733 7.96217 21.7327 11.813L23.123 11.25L24.5134 10.687C22.5117 5.74411 17.6681 2.25011 12 2.25L12 3.75ZM23.123 11.25L21.7327 10.687C20.1733 14.5378 16.4027 17.2499 12 17.25L12 18.75L12 20.25C17.6681 20.2499 22.5117 16.7559 24.5134 11.813L23.123 11.25ZM12 18.75V17.25C7.5967 17.25 3.82455 14.5379 2.26535 10.687L0.875 11.25L-0.515354 11.813C1.48629 16.7565 6.33196 20.25 12 20.25V18.75ZM0.875 11.25L2.26535 11.813C3.82455 7.96212 7.5967 5.25 12 5.25V3.75V2.25C6.33196 2.25 1.48629 5.74349 -0.515354 10.687L0.875 11.25Z"
        fill="#60778C" mask="url(#path-2-inside-1_2017_29465)" />
    <path d="M15.75 1.5L8.25 21.75" stroke="#60778C" stroke-width="1.5" stroke-linecap="round" />
    <path d="M16.9453 1.5L9.44531 21.75" stroke="white" stroke-width="1.5" stroke-linecap="round" />
</svg>
