<svg width="24" height="24" viewBox="0 0 24 24" fill="none" xmlns="http://www.w3.org/2000/svg">
    <path
        d="M8.73047 21.4986C10.0226 19.2756 12.9819 19.0135 14.6673 20.7122C15.0441 21.092 15.2325 21.282 15.3996 21.3047C15.5667 21.3274 16.6152 20.7261 16.9874 20.5127C17.3668 20.2952 18.4187 19.6918 18.4848 19.534C18.5509 19.3761 18.4817 19.107 18.3433 18.5688C17.8399 16.6117 19.0606 14.552 21.011 14.0208C21.5329 13.8786 21.7938 13.8075 21.8969 13.6716C22 13.5357 22 12.3405 22 11.9032C22 11.466 22 10.2707 21.8969 10.1348C21.7938 9.99886 21.5329 9.92775 21.011 9.78563C19.0603 9.25437 17.8386 7.19473 18.3418 5.23754C18.4801 4.69924 18.5493 4.43009 18.4832 4.27227C18.4171 4.11446 17.3652 3.51115 16.9859 3.29362C16.6136 3.08016 15.5651 2.47888 15.3981 2.5016C15.231 2.52434 15.0426 2.71423 14.6657 3.09403C13.2064 4.56445 10.792 4.56451 9.33276 3.09412C8.95585 2.71433 8.76739 2.52443 8.60035 2.50171C8.4333 2.47898 7.38483 3.08027 7.0126 3.29374C6.63327 3.51128 5.58126 4.11457 5.51516 4.27241C5.44907 4.43025 5.51829 4.69936 5.65672 5.23761C6.16008 7.19474 4.9394 9.25433 2.98902 9.78561C2.46711 9.92775 2.20615 9.99886 2.10308 10.1349C2 10.2707 2 11.466 2 11.9032C2 12.3405 2 13.5357 2.10308 13.6717C2.20617 13.8076 2.467 13.8786 2.98866 14.0207C2.99478 14.0224 3.00089 14.0241 3.007 14.0257"
        stroke="black" stroke-width="1.5" stroke-linecap="round" />
    <path
        d="M2.48891 18.1826C3.56891 17.1031 7.24091 13.4686 7.60091 13.0487C7.98148 12.6049 7.67291 12.0052 7.85651 10.1459C7.94535 9.24627 8.13895 8.57229 8.69291 8.07075C9.35291 7.44701 9.89291 7.44701 11.7529 7.40502C13.3729 7.44701 13.5649 7.26708 13.7329 7.68691C13.8529 7.98679 13.4929 8.16671 13.0609 8.64652C12.1009 9.60612 11.5369 10.086 11.4829 10.3859C11.0929 11.7053 12.6289 12.485 13.4689 11.6453C13.7866 11.3278 15.2569 9.84603 15.4009 9.72608C15.5089 9.63012 15.7674 9.63476 15.8929 9.78605C16.0009 9.89211 16.0129 9.90599 16.0009 10.3858C15.9898 10.83 15.9948 11.4676 15.9961 12.1251C15.9979 12.9771 15.9529 13.9244 15.5929 14.4042C14.8729 15.4837 13.6729 15.5437 12.5929 15.5917C11.5729 15.6517 10.7329 15.5437 10.4689 15.7356C10.2529 15.8436 9.11291 17.0431 7.73291 18.4225L5.27291 20.8815C3.23291 22.5009 0.98891 19.9819 2.48891 18.1826Z"
        stroke="black" stroke-width="1.5" stroke-linecap="round" />
</svg>
