<svg width="14" height="14" viewBox="0 0 14 14" fill="none" xmlns="http://www.w3.org/2000/svg">
    <g clip-path="url(#clip0_1_1142)">
        <path
            d="M12.3515 3.97366C12.66 3.66533 12.8333 3.2471 12.8333 2.811C12.8334 2.37489 12.6602 1.95662 12.3518 1.64821C12.0435 1.33979 11.6253 1.1665 11.1892 1.16644C10.7531 1.16639 10.3348 1.33958 10.0264 1.64792L2.24121 9.43483C2.10577 9.56987 2.00561 9.73614 1.94954 9.919L1.17896 12.4577C1.16388 12.5081 1.16275 12.5617 1.17566 12.6127C1.18858 12.6638 1.21508 12.7104 1.25234 12.7476C1.2896 12.7848 1.33624 12.8112 1.3873 12.824C1.43837 12.8369 1.49195 12.8357 1.54238 12.8205L4.08163 12.0505C4.26431 11.9949 4.43056 11.8954 4.56579 11.7606L12.3515 3.97366Z"
            stroke="white" stroke-width="1.16667" stroke-linecap="round" stroke-linejoin="round" />
    </g>
    <defs>
        <clipPath id="clip0_1_1142">
            <rect width="14" height="14" fill="white" />
        </clipPath>
    </defs>
</svg>
