<svg width="34" height="20" viewBox="0 0 34 20" fill="none" xmlns="http://www.w3.org/2000/svg">
    <path fill-rule="evenodd" clip-rule="evenodd"
        d="M0 8.24092V20H34V8.24092H27.6699V9.24988H23.9224V8.24092H10.0756V9.24988H6.32876V8.24092H0ZM11.7273 3.4786V2.56648L12.6358 1.70519H21.3642L22.2741 2.56648V3.4786H11.7273ZM0 7.38124H6.32876V6.67632H10.0759V7.38124H23.9224V6.67632H27.6695V7.38124H34V5.24428L32.1344 3.47892H24.2617V1.96387L22.1877 0H11.8119L9.73658 1.96387V3.47892H1.86354L0 5.24396V7.38124ZM13.8009 13.982L16.1469 9.07517H19.3535L17.3998 12.1667H20.8797L13.8009 18.8681L16.4489 13.982H13.8009Z"
        fill="white" />
</svg>
