<svg width="29" height="28" viewBox="0 0 29 28" fill="none" xmlns="http://www.w3.org/2000/svg">
    <path
        d="M2.83594 8.16699L12.3617 14.835C13.133 15.375 13.5187 15.6449 13.9382 15.7495C14.3088 15.8419 14.6964 15.8419 15.067 15.7495C15.4865 15.6449 15.8722 15.375 16.6435 14.835L26.1693 8.16699M8.43594 23.3337H20.5693C22.5295 23.3337 23.5095 23.3337 24.2582 22.9522C24.9168 22.6166 25.4522 22.0812 25.7878 21.4226C26.1693 20.6739 26.1693 19.6938 26.1693 17.7337V10.267C26.1693 8.30681 26.1693 7.32672 25.7878 6.57803C25.4522 5.91946 24.9168 5.38403 24.2582 5.04847C23.5095 4.66699 22.5295 4.66699 20.5693 4.66699H8.43594C6.47575 4.66699 5.49566 4.66699 4.74697 5.04847C4.0884 5.38403 3.55297 5.91946 3.21741 6.57803C2.83594 7.32672 2.83594 8.30681 2.83594 10.267V17.7337C2.83594 19.6938 2.83594 20.6739 3.21741 21.4226C3.55297 22.0812 4.0884 22.6166 4.74697 22.9522C5.49566 23.3337 6.47575 23.3337 8.43594 23.3337Z"
        stroke="#414651" stroke-width="2" stroke-linecap="round" stroke-linejoin="round" />
</svg>
