<svg width="25" height="25" viewBox="0 0 25 25" fill="none" xmlns="http://www.w3.org/2000/svg">
    <path
        d="M12.4997 2.125C6.77051 2.125 2.08301 6.80208 2.08301 12.5625C2.08301 17.7708 5.89551 22.0937 10.8747 22.875V15.5833H8.22884V12.5625H10.8747V10.2604C10.8747 7.64583 12.4268 6.20833 14.8122 6.20833C15.9476 6.20833 17.1351 6.40625 17.1351 6.40625V8.97917H15.8226C14.5309 8.97917 14.1247 9.78125 14.1247 10.6042V12.5625H17.0205L16.5518 15.5833H14.1247V22.875C16.5793 22.4873 18.8145 21.2349 20.4267 19.3438C22.0389 17.4527 22.9219 15.0475 22.9163 12.5625C22.9163 6.80208 18.2288 2.125 12.4997 2.125Z"
        fill="#407BFF" />
</svg>
