<svg width="19" height="24" viewBox="0 0 19 24" fill="none" xmlns="http://www.w3.org/2000/svg">
    <path
        d="M17.4509 11.2962C17.3102 11.1411 17.1952 11.0186 17.1491 10.9561C16.965 10.7361 16.9292 10.0885 17.1491 9.72849C17.4048 9.30845 16.4587 7.29074 15.6149 5.66808C15.5817 5.58807 15.5408 5.50806 15.5024 5.41805C15.9064 5.16803 16.8142 4.49296 16.6147 3.57536C16.359 2.40274 15.6865 1.09761 15.3158 0.737575C15.3158 0.737575 15.6507 1.83519 15.3158 1.87019C15.3158 1.87019 14.8709 1.48015 14.5487 0.342535C14.5487 0.342535 14.3671 1.26513 13.9682 1.26513C13.5694 1.26513 12.9864 0.342535 12.4059 0.127513C12.4059 0.127513 12.5875 0.695071 12.4059 0.910093C12.1715 0.894113 11.9469 0.811547 11.7597 0.672528C11.5726 0.533509 11.431 0.344087 11.3524 0.127513C11.3524 0.127513 11.2067 0.527554 11.1351 0.735075C11.1351 0.735075 10.4805 0.410042 10.4447 0.127513C9.9959 0.257983 9.57551 0.468178 9.20457 0.747576C9.20457 0.747576 9.02303 0.600061 9.35032 0.140014C9.35032 0.140014 7.89795 0.39004 7.38911 0.922594C7.38911 0.922594 7.73431 0.49505 8.07183 0C8.07183 0 5.53785 0.532554 5.53785 1.45765C5.55251 1.04531 5.69819 0.647674 5.95464 0.320033C5.95464 0.320033 3.57409 1.20762 3.14196 1.9902C3.38945 1.37935 3.75986 0.823303 4.23123 0.355036C4.23123 0.355036 2.41321 1.45265 2.30582 2.76778C2.30582 2.76778 2.23422 1.38514 2.48737 0.567558C2.48737 0.567558 1.54384 2.20272 1.28814 3.76538C1.10209 4.60459 0.869921 5.43337 0.592638 6.24814C0.301141 6.95821 -0.58102 8.59338 0.592638 10.086C0.684437 9.72307 0.831853 9.37577 1.02988 9.05592L0.812539 10.3061C1.14977 11.2264 1.54428 12.1256 1.99387 12.9988C2.12683 13.3439 2.27769 13.7189 2.43878 14.1164C2.91631 15.2286 3.32364 16.3684 3.65847 17.5293C4.01133 18.9044 3.49226 20.4221 3.14707 21.2022C2.9553 21.6422 3.14707 22.1198 3.63545 22.4523C5.91884 23.9249 8.71619 23.9999 11.2451 23.9999H11.6618C11.7918 24.0014 11.9205 23.9745 12.0386 23.9213C12.1567 23.8681 12.2612 23.7899 12.3446 23.6924C12.4106 23.6124 12.458 23.5193 12.4836 23.4196C12.5092 23.3199 12.5124 23.2159 12.4929 23.1149C12.6412 21.7797 13.26 21.1147 13.421 20.9671C13.6767 20.9271 14.6612 20.7771 16.1468 20.6021C16.5156 20.5752 16.8685 20.4441 17.1627 20.2249C17.4568 20.0056 17.6795 19.7076 17.8037 19.367C18.0313 18.7569 17.9623 18.0168 17.6426 17.6818C17.4585 17.4868 17.4253 17.3443 17.4688 17.2843C18.0364 16.9992 18.0006 16.3792 17.8753 15.9991C18.0345 15.8231 18.1178 15.5938 18.108 15.3591C18.0696 15.0333 17.919 14.73 17.681 14.499C17.837 14.3815 18.0057 14.2665 18.1719 14.1514C18.6705 13.8114 18.939 13.6239 18.9927 13.4164C19.0464 13.2088 18.8291 12.8313 17.4509 11.2962ZM9.0486 14.929C9.00089 14.6552 8.8447 14.4109 8.61391 14.249C8.45665 14.0683 8.34459 13.8543 8.28662 13.6239C8.28085 13.5675 8.25242 13.5157 8.20759 13.4798C8.16275 13.444 8.10518 13.427 8.04754 13.4326C7.98989 13.4383 7.9369 13.4661 7.90022 13.5099C7.86353 13.5537 7.84616 13.61 7.85193 13.6664C7.86535 13.7601 7.89113 13.8517 7.92864 13.9389C7.52208 13.8414 6.80356 13.6614 6.65014 13.3789C6.6357 13.3501 6.62818 13.3184 6.62818 13.2864C6.62818 13.2543 6.6357 13.2226 6.65014 13.1938C6.70184 13.0325 6.80374 12.8909 6.94164 12.7888C7.14309 12.638 7.29507 12.4329 7.37888 12.1987C7.48093 12.4978 7.49946 12.818 7.43258 13.1263C7.42711 13.1547 7.42758 13.1838 7.43397 13.2119C7.44037 13.24 7.45254 13.2666 7.46976 13.29C7.48698 13.3134 7.50889 13.3331 7.53415 13.3479C7.5594 13.3628 7.58748 13.3725 7.61668 13.3764H7.64737C7.69963 13.3763 7.75011 13.3578 7.78956 13.3243C7.829 13.2907 7.85478 13.2444 7.86216 13.1938C8.09228 11.6437 7.21012 11.4087 6.73452 11.2812C6.5555 11.2178 6.35942 11.2179 6.18046 11.2814C6.0015 11.3449 5.851 11.4678 5.7552 11.6287C5.74241 11.6533 5.73471 11.6802 5.73255 11.7077C5.73039 11.7352 5.73379 11.7629 5.74258 11.7891C5.75137 11.8154 5.76536 11.8397 5.78376 11.8606C5.80216 11.8816 5.8246 11.8988 5.84981 11.9112C5.9008 11.9371 5.96011 11.9424 6.01507 11.926C6.07002 11.9097 6.11624 11.873 6.14386 11.8237C6.16432 11.7862 6.28705 11.6037 6.61946 11.6937C6.76463 11.7268 6.90536 11.7763 7.03881 11.8412C6.99779 12.0908 6.86167 12.3159 6.65781 12.4713C6.45642 12.6216 6.30659 12.8282 6.22824 13.0638C6.19389 13.1495 6.17885 13.2415 6.18415 13.3334C6.18944 13.4253 6.21495 13.515 6.25892 13.5964C6.51462 14.0539 7.3124 14.249 7.84681 14.3765L7.93119 14.3965C8.22269 14.469 8.58323 14.7415 8.61135 14.984C8.6267 15.124 8.51419 15.2541 8.27383 15.3716C8.1297 15.4196 7.97662 15.4364 7.82519 15.4209C7.67375 15.4053 7.52758 15.3578 7.39678 15.2816C6.92101 15.0271 6.50215 14.6821 6.16488 14.2668C5.82762 13.8516 5.57877 13.3746 5.43302 12.8638C5.12873 11.4987 5.86515 11.1136 6.45581 10.9336C6.6114 10.8921 6.77493 10.888 6.93251 10.9215C7.09009 10.955 7.23708 11.0252 7.36099 11.1261C7.40405 11.1636 7.46057 11.1828 7.51811 11.1795C7.57565 11.1762 7.62951 11.1507 7.66782 11.1086C8.07862 11.6382 8.41329 12.2204 8.66249 12.8388C9.17389 14.0014 9.17389 14.699 9.0486 15.109C9.05707 15.0493 9.05707 14.9887 9.0486 14.929ZM13.2855 20.5571C13.2489 20.5635 13.2146 20.579 13.1858 20.6021C13.1475 20.6321 12.2372 21.3522 12.0556 23.1024C12.0517 23.1255 12.0517 23.1492 12.0556 23.1724C12.0664 23.2155 12.067 23.2604 12.0572 23.3038C12.0475 23.3471 12.0277 23.3877 11.9994 23.4224C11.957 23.4702 11.9043 23.5083 11.845 23.5338C11.7858 23.5593 11.7214 23.5717 11.6567 23.5699C9.0844 23.5699 6.16687 23.5699 3.87837 22.0697C3.76075 21.9922 3.38998 21.7122 3.54852 21.3497C3.90905 20.5196 4.4588 18.9019 4.07781 17.4068C4.0548 17.3168 4.02923 17.2268 4.00366 17.1342C4.12895 16.3167 4.32584 14.7815 4.12895 14.249C3.96019 13.8139 4.32328 12.5813 5.03157 11.6837C4.92021 12.0992 4.92021 12.5358 5.03157 12.9513C5.1913 13.5255 5.46885 14.0619 5.84734 14.5278C6.22582 14.9938 6.69732 15.3795 7.23314 15.6616C7.47102 15.7811 7.73297 15.8476 8.00023 15.8566C8.16511 15.857 8.32787 15.8202 8.47583 15.7491C8.52766 15.7235 8.57802 15.6951 8.6267 15.6641C8.6267 15.8791 8.71108 17.6643 9.46283 18.2644C10.1507 18.8144 11.8459 20.1521 13.5694 20.5146L13.2855 20.5571ZM17.2489 16.9167L17.2079 16.9417C17.1531 16.9866 17.1081 17.0419 17.0756 17.1041C17.0431 17.1664 17.0237 17.2345 17.0187 17.3043C17.0125 17.493 17.076 17.6777 17.1977 17.8243C16.7825 17.8256 16.3682 17.8641 15.9601 17.9393C15.2698 18.0818 15.2877 16.2392 16.5406 15.6366C16.5406 15.6366 17.3077 15.3291 17.6631 15.4216C17.6497 15.5641 17.58 15.696 17.4688 15.7891C17.4342 15.8201 17.4107 15.8612 17.402 15.9062C17.3932 15.9513 17.3996 15.9979 17.4202 16.0391C17.4253 16.0591 17.7168 16.6992 17.2489 16.9142V16.9167ZM17.9137 13.7939C17.658 13.9614 17.4023 14.1364 17.2003 14.3165C17.1738 14.3396 17.1536 14.3688 17.1415 14.4015C16.3488 14.249 15.0959 15.5841 14.8734 16.2042C14.6177 16.8792 13.1296 18.4769 11.2757 17.4543C9.42192 16.4317 10.0407 14.814 9.85916 13.6639C9.67762 12.5138 9.45516 10.6636 10.1328 10.5236C11.0405 10.3486 11.2093 8.23084 10.1328 7.02322C10.1328 7.02322 11.2655 6.92821 11.2757 8.39586C11.2757 8.39586 12.4392 7.22324 11.2041 6.26314C11.4765 6.05015 11.7822 5.88131 12.1093 5.76309C12.4611 5.47855 12.7792 5.15653 13.058 4.80299C13.0471 5.09657 12.959 5.38245 12.8023 5.63307H12.8662C13.6044 5.69942 14.3479 5.686 15.0831 5.59307C15.1291 5.68058 15.17 5.76809 15.2084 5.8581V5.8756C15.9959 7.40075 16.8014 9.22844 16.7426 9.54847C16.4588 10.0485 16.4869 10.8761 16.7912 11.2486C16.8449 11.3137 16.9574 11.4387 17.1031 11.6012C17.4636 12.0012 18.3816 13.0388 18.5274 13.3364C18.3372 13.5047 18.1328 13.6569 17.9162 13.7914L17.9137 13.7939Z"
        fill="white" />
</svg>
