<svg width="24" height="24" viewBox="0 0 24 24" fill="none" xmlns="http://www.w3.org/2000/svg">
    <path
        d="M23.8666 10.7503C23.7665 10.9448 23.614 11.1076 23.4264 11.2203C23.2401 11.3332 23.0265 11.3928 22.8087 11.3928C22.6128 11.3937 22.42 11.3446 22.2484 11.2503L11.9571 5.90027L1.7407 11.2153C1.46126 11.3608 1.13558 11.3898 0.834766 11.2962C0.533949 11.2025 0.282421 10.9937 0.135089 10.7153C-0.0105808 10.4356 -0.0397475 10.1096 0.0539457 9.80852C0.147639 9.50741 0.356597 9.25553 0.635278 9.10777L11.4069 3.50028C11.5767 3.41157 11.7654 3.36523 11.9571 3.36523C12.1487 3.36523 12.3374 3.41157 12.5073 3.50028L17.2015 5.93777C17.0326 5.99523 16.8896 6.11103 16.7983 6.26436C16.7071 6.4177 16.6735 6.59854 16.7036 6.7744C16.7338 6.95026 16.8256 7.10963 16.9627 7.22388C17.0998 7.33813 17.2732 7.39979 17.4516 7.39777C17.7495 7.39777 18.0351 7.51603 18.2457 7.72654C18.4563 7.93705 18.5746 8.22256 18.5746 8.52027C18.5746 8.71918 18.6536 8.90994 18.7943 9.0506C18.935 9.19125 19.1259 9.27027 19.3248 9.27027C19.5238 9.27027 19.7147 9.19125 19.8554 9.0506C19.9961 8.90994 20.0751 8.71918 20.0751 8.52027C20.0763 8.35293 20.1148 8.18796 20.1879 8.03743C20.261 7.8869 20.3669 7.75462 20.4978 7.65027L23.3689 9.15026C23.6456 9.29796 23.8531 9.5487 23.9462 9.84816C24.0394 10.1476 24.0107 10.4717 23.8666 10.7503Z"
        fill="white" />
    <path
        d="M11.9952 8.3916C11.5807 8.3921 11.1757 8.51529 10.8312 8.74562C10.4866 8.97596 10.2181 9.30313 10.0594 9.68586C9.90065 10.0686 9.85887 10.4897 9.93931 10.8962C10.0197 11.3026 10.2188 11.6761 10.5113 11.9696C10.8039 12.2631 11.1768 12.4634 11.5831 12.5452C11.9894 12.6271 12.4109 12.5868 12.7943 12.4295C13.1778 12.2722 13.506 12.005 13.7377 11.6614C13.9693 11.3178 14.094 10.9134 14.096 10.4991C14.097 10.2227 14.0434 9.94881 13.9382 9.69316C13.8331 9.43751 13.6785 9.20512 13.4833 9.00933C13.2882 8.81353 13.0562 8.65817 12.8009 8.55217C12.5455 8.44617 12.2717 8.3916 11.9952 8.3916ZM11.9952 12.0866C11.6788 12.0861 11.3697 11.9917 11.107 11.8154C10.8443 11.6392 10.6399 11.3889 10.5196 11.0964C10.3993 10.8038 10.3686 10.4822 10.4314 10.1722C10.4941 9.86223 10.6475 9.57784 10.8721 9.35508C11.0967 9.13232 11.3824 8.98121 11.693 8.92091C12.0036 8.86061 12.3251 8.89382 12.6168 9.01634C12.9085 9.13885 13.1572 9.34516 13.3315 9.60913C13.5058 9.87309 13.5978 10.1828 13.5958 10.4991C13.5925 10.9213 13.4224 11.325 13.1226 11.6224C12.8228 11.9198 12.4175 12.0866 11.9952 12.0866Z"
        fill="white" />
    <path d="M7.36277 17.4482H4.67676V20.1367H7.36277V17.4482Z" fill="white" />
    <path d="M10.5493 17.4482H7.86328V20.1367H10.5493V17.4482Z" fill="white" />
    <path d="M7.36277 14.2627H4.67676V16.9511H7.36277V14.2627Z" fill="white" />
    <path
        d="M17.8193 19.5039C17.9574 19.5039 18.0693 19.392 18.0693 19.2539C18.0693 19.1158 17.9574 19.0039 17.8193 19.0039C17.6813 19.0039 17.5693 19.1158 17.5693 19.2539C17.5693 19.392 17.6813 19.5039 17.8193 19.5039Z"
        fill="white" />
    <path d="M10.5493 14.2627H7.86328V16.9511H10.5493V14.2627Z" fill="white" />
    <path
        d="M11.0492 20.3854C11.0492 20.4517 11.0229 20.5152 10.976 20.5621C10.9291 20.609 10.8654 20.6354 10.7991 20.6354H4.4267C4.36037 20.6354 4.29676 20.609 4.24986 20.5621C4.20296 20.5152 4.17661 20.4517 4.17661 20.3854V17.1979V14.0129C4.17661 13.9466 4.20296 13.883 4.24986 13.8361C4.29676 13.7892 4.36037 13.7629 4.4267 13.7629H10.7991C10.8654 13.7629 10.9291 13.7892 10.976 13.8361C11.0229 13.883 11.0492 13.9466 11.0492 14.0129V20.3854ZM19.6074 23.7503C19.6074 23.8166 19.5811 23.8802 19.5342 23.9271C19.4873 23.974 19.4237 24.0003 19.3573 24.0003H13.1375C13.0712 24.0003 13.0076 23.974 12.9607 23.9271C12.9138 23.8802 12.8874 23.8166 12.8874 23.7503V14.7704C12.8874 14.7041 12.9138 14.6405 12.9607 14.5936C13.0076 14.5467 13.0712 14.5204 13.1375 14.5204H19.3573C19.4237 14.5204 19.4873 14.5467 19.5342 14.5936C19.5811 14.6405 19.6074 14.7041 19.6074 14.7704V23.7503ZM11.957 6.46289L2.2959 11.4829V23.7328C2.2959 23.7991 2.32225 23.8627 2.36915 23.9096C2.41605 23.9565 2.47966 23.9828 2.54599 23.9828H21.3656C21.4319 23.9828 21.4955 23.9565 21.5424 23.9096C21.5894 23.8627 21.6157 23.7991 21.6157 23.7328V11.4829L11.957 6.46289ZM11.9946 12.0879C11.6782 12.0874 11.369 11.993 11.1064 11.8167C10.8437 11.6404 10.6392 11.3902 10.519 11.0977C10.3987 10.8051 10.368 10.4835 10.4307 10.1735C10.4935 9.86351 10.6469 9.57912 10.8715 9.35636C11.0961 9.1336 11.3818 8.9825 11.6924 8.92219C12.003 8.86189 12.3245 8.8951 12.6162 9.01762C12.9079 9.14014 13.1566 9.34645 13.3309 9.61041C13.5052 9.87438 13.5971 10.1841 13.5952 10.5004C13.5919 10.9226 13.4218 11.3263 13.122 11.6237C12.8221 11.921 12.4169 12.0879 11.9946 12.0879Z"
        fill="white" />
    <path
        d="M13.3877 23.5015H19.1074V15.0215H13.3877V23.5015ZM17.8194 18.5015C17.9678 18.5015 18.1128 18.5455 18.2362 18.6279C18.3596 18.7103 18.4558 18.8274 18.5125 18.9645C18.5693 19.1015 18.5842 19.2523 18.5552 19.3978C18.5263 19.5433 18.4548 19.6769 18.3499 19.7818C18.245 19.8867 18.1113 19.9581 17.9657 19.9871C17.8202 20.016 17.6693 20.0011 17.5323 19.9444C17.3952 19.8876 17.278 19.7915 17.1955 19.6681C17.1131 19.5448 17.0691 19.3998 17.0691 19.2515C17.0691 19.0526 17.1481 18.8618 17.2888 18.7211C17.4295 18.5805 17.6204 18.5015 17.8194 18.5015Z"
        fill="white" />
    <path
        d="M17.4463 2.37999C17.0164 2.38065 16.6044 2.55146 16.3002 2.85506C15.996 3.15865 15.8245 3.57031 15.8232 3.99999C15.8232 4.06629 15.7968 4.12988 15.7499 4.17676C15.703 4.22365 15.6394 4.24999 15.5731 4.24999C15.5067 4.24999 15.4431 4.22365 15.3962 4.17676C15.3493 4.12988 15.323 4.06629 15.323 3.99999C15.323 3.78671 15.2809 3.57552 15.1992 3.37851C15.1175 3.1815 14.9977 3.00252 14.8467 2.85183C14.6957 2.70113 14.5165 2.58167 14.3193 2.50028C14.1221 2.41889 13.9107 2.37716 13.6974 2.37749C13.631 2.37749 13.5674 2.35115 13.5205 2.30427C13.4736 2.25739 13.4473 2.1938 13.4473 2.12749C13.4473 2.06119 13.4736 1.9976 13.5205 1.95072C13.5674 1.90383 13.631 1.87749 13.6974 1.87749C13.911 1.8775 14.1226 1.83538 14.32 1.75356C14.5174 1.67174 14.6967 1.55182 14.8477 1.40066C14.9987 1.2495 15.1184 1.07007 15.2 0.872626C15.2815 0.675184 15.3233 0.463607 15.323 0.249999C15.323 0.183695 15.3493 0.120107 15.3962 0.0732231C15.4431 0.0263392 15.5067 0 15.5731 0C15.6394 0 15.703 0.0263392 15.7499 0.0732231C15.7968 0.120107 15.8232 0.183695 15.8232 0.249999C15.8217 0.642425 15.9651 1.0216 16.2258 1.315C16.2476 1.34449 16.2719 1.37209 16.2983 1.3975C16.4488 1.54859 16.6277 1.66837 16.8247 1.7499C17.0218 1.83143 17.233 1.8731 17.4463 1.87249C17.5126 1.87249 17.5762 1.89883 17.6231 1.94572C17.67 1.9926 17.6964 2.05619 17.6964 2.12249C17.6964 2.1888 17.67 2.25239 17.6231 2.29927C17.5762 2.34615 17.5126 2.37249 17.4463 2.37249V2.37999Z"
        fill="white" />
    <path
        d="M21.4439 6.64777C21.4439 6.71407 21.4175 6.77766 21.3706 6.82454C21.3237 6.87143 21.2601 6.89777 21.1938 6.89777C20.9805 6.89744 20.7693 6.93918 20.5722 7.0206C20.3752 7.10202 20.1961 7.22152 20.0453 7.37225C19.8945 7.52298 19.775 7.70197 19.6935 7.89897C19.6121 8.09597 19.5703 8.3071 19.5707 8.52026C19.5707 8.58657 19.5443 8.65015 19.4974 8.69704C19.4505 8.74392 19.3869 8.77026 19.3206 8.77026C19.2542 8.77026 19.1906 8.74392 19.1437 8.69704C19.0968 8.65015 19.0705 8.58657 19.0705 8.52026C19.0698 8.09038 18.8985 7.67834 18.5942 7.3746C18.2899 7.07086 17.8774 6.90027 17.4474 6.90027C17.381 6.90027 17.3174 6.87393 17.2705 6.82704C17.2236 6.78016 17.1973 6.71657 17.1973 6.65027C17.1973 6.58396 17.2236 6.52038 17.2705 6.47349C17.3174 6.42661 17.381 6.40027 17.4474 6.40027C17.5823 6.39981 17.7166 6.38303 17.8475 6.35027C18.166 6.27211 18.4525 6.09748 18.6678 5.85027C18.9281 5.55461 19.0713 5.17408 19.0705 4.78027C19.0705 4.71397 19.0968 4.65038 19.1437 4.6035C19.1906 4.55661 19.2542 4.53027 19.3206 4.53027C19.3869 4.53027 19.4505 4.55661 19.4974 4.6035C19.5443 4.65038 19.5707 4.71397 19.5707 4.78027C19.5692 5.17421 19.7125 5.55497 19.9733 5.85027C19.995 5.87755 20.0184 5.90344 20.0433 5.92777C20.1941 6.07916 20.3734 6.19911 20.5709 6.28066C20.7684 6.3622 20.9801 6.40371 21.1938 6.40277C21.2592 6.40276 21.3221 6.42841 21.3689 6.47421C21.4156 6.52002 21.4426 6.58233 21.4439 6.64777Z"
        fill="white" />
    <path
        d="M6.60236 3.06507C6.60236 3.13137 6.57601 3.19496 6.52911 3.24185C6.4822 3.28873 6.41859 3.31507 6.35226 3.31507C5.74224 3.31573 5.15739 3.55826 4.72603 3.98945C4.29468 4.42064 4.05205 5.00527 4.05139 5.61506C4.05139 5.68137 4.02504 5.74496 3.97814 5.79184C3.93124 5.83872 3.86763 5.86506 3.8013 5.86506C3.73497 5.86506 3.67136 5.83872 3.62445 5.79184C3.57755 5.74496 3.5512 5.68137 3.5512 5.61506C3.55154 5.3122 3.4919 5.01227 3.37574 4.73256C3.25957 4.45285 3.08917 4.19888 2.87435 3.98531C2.65953 3.77174 2.40455 3.60278 2.12411 3.48818C1.84366 3.37357 1.5433 3.31559 1.24033 3.31757C1.174 3.31757 1.11039 3.29123 1.06349 3.24435C1.01658 3.19746 0.990234 3.13387 0.990234 3.06757C0.990234 3.00127 1.01658 2.93768 1.06349 2.89079C1.11039 2.84391 1.174 2.81757 1.24033 2.81757C1.54269 2.8179 1.84216 2.75865 2.1216 2.64321C2.40105 2.52777 2.65499 2.35841 2.86891 2.1448C3.08283 1.9312 3.25253 1.67754 3.36832 1.39832C3.4841 1.11911 3.5437 0.819827 3.5437 0.517577C3.5437 0.451274 3.57005 0.387685 3.61695 0.340801C3.66385 0.293917 3.72746 0.267578 3.79379 0.267578C3.86012 0.267578 3.92374 0.293917 3.97064 0.340801C4.01754 0.387685 4.04389 0.451274 4.04389 0.517577C4.04562 1.07017 4.24828 1.60328 4.6141 2.01757C4.64589 2.05798 4.68013 2.09638 4.71664 2.13257C4.93037 2.3463 5.18421 2.51573 5.46361 2.63113C5.743 2.74654 6.04245 2.80565 6.34476 2.80507C6.37909 2.80401 6.41326 2.81003 6.44516 2.82276C6.47706 2.83548 6.50599 2.85464 6.53016 2.87903C6.55433 2.90342 6.57321 2.93253 6.58563 2.96454C6.59805 2.99655 6.60375 3.03077 6.60236 3.06507Z"
        fill="white" />
</svg>
