<svg width="24" height="24" viewBox="0 0 24 24" fill="none" xmlns="http://www.w3.org/2000/svg">
    <path
        d="M20.0422 6.81969L14.2822 2.78969C12.7122 1.68969 10.3022 1.74969 8.79219 2.91969L3.78219 6.82969C2.78219 7.60969 1.99219 9.20969 1.99219 10.4697V17.3697C1.99219 19.9197 4.06219 21.9997 6.61219 21.9997H17.3922C19.9422 21.9997 22.0122 19.9297 22.0122 17.3797V10.5997C22.0122 9.24969 21.1422 7.58969 20.0422 6.81969ZM12.7522 17.9997C12.7522 18.4097 12.4122 18.7497 12.0022 18.7497C11.5922 18.7497 11.2522 18.4097 11.2522 17.9997V14.9997C11.2522 14.5897 11.5922 14.2497 12.0022 14.2497C12.4122 14.2497 12.7522 14.5897 12.7522 14.9997V17.9997Z"
        fill="white" />
</svg>
