<svg width="20" height="20" viewBox="0 0 20 20" fill="none" xmlns="http://www.w3.org/2000/svg">
    <path
        d="M14.7917 2.5C15.51 2.5 16.1988 2.78534 16.7067 3.29325C17.2147 3.80116 17.5 4.49004 17.5 5.20833V14.7917C17.5 15.51 17.2147 16.1988 16.7067 16.7067C16.1988 17.2147 15.51 17.5 14.7917 17.5H5.20833C4.49004 17.5 3.80116 17.2147 3.29325 16.7067C2.78534 16.1988 2.5 15.51 2.5 14.7917V5.20833C2.5 4.49004 2.78534 3.80116 3.29325 3.29325C3.80116 2.78534 4.49004 2.5 5.20833 2.5H14.7917Z"
        fill="url(#paint0_radial_2143_30221)" />
    <path
        d="M17.0979 16.217C16.855 16.6096 16.5159 16.9335 16.1126 17.1581C15.7093 17.3827 15.2553 17.5005 14.7937 17.5004H5.21042C4.74882 17.5005 4.29483 17.3827 3.89156 17.1581C3.48829 16.9335 3.14912 16.6096 2.90625 16.217L8.68875 10.5404L8.80125 10.4379C9.13931 10.156 9.56575 10.002 10.0059 10.0029C10.4461 10.0038 10.8719 10.1596 11.2087 10.4429L11.3154 10.5404L17.0979 16.217Z"
        fill="url(#paint1_linear_2143_30221)" />
    <path
        d="M13.3307 5C13.7728 5 14.1967 5.17559 14.5092 5.48816C14.8218 5.80072 14.9974 6.22464 14.9974 6.66667C14.9974 7.10869 14.8218 7.53262 14.5092 7.84518C14.1967 8.15774 13.7728 8.33333 13.3307 8.33333C12.8887 8.33333 12.4648 8.15774 12.1522 7.84518C11.8397 7.53262 11.6641 7.10869 11.6641 6.66667C11.6641 6.22464 11.8397 5.80072 12.1522 5.48816C12.4648 5.17559 12.8887 5 13.3307 5Z"
        fill="url(#paint2_linear_2143_30221)" />
    <defs>
        <radialGradient id="paint0_radial_2143_30221" cx="0" cy="0" r="1"
            gradientUnits="userSpaceOnUse"
            gradientTransform="translate(-3.39239 -5.93774) rotate(51.687) scale(41.4774 37.7265)">
            <stop offset="0.338" stop-color="#0FAFFF" />
            <stop offset="0.529" stop-color="#367AF2" />
        </radialGradient>
        <linearGradient id="paint1_linear_2143_30221" x1="7.97458" y1="10.0029" x2="9.66375"
            y2="17.8979" gradientUnits="userSpaceOnUse">
            <stop stop-color="#B3E0FF" />
            <stop offset="1" stop-color="#8CD0FF" />
        </linearGradient>
        <linearGradient id="paint2_linear_2143_30221" x1="12.6641" y1="4.63" x2="13.8816"
            y2="9.01333" gradientUnits="userSpaceOnUse">
            <stop stop-color="#FDFDFD" />
            <stop offset="1" stop-color="#B3E0FF" />
        </linearGradient>
    </defs>
</svg>
