<svg width="18" height="18" viewBox="0 0 18 18" fill="none" xmlns="http://www.w3.org/2000/svg">
    <path
        d="M13.8542 2.1875H3.64583C2.84042 2.1875 2.1875 2.84042 2.1875 3.64583V13.8542C2.1875 14.6596 2.84042 15.3125 3.64583 15.3125H13.8542C14.6596 15.3125 15.3125 14.6596 15.3125 13.8542V3.64583C15.3125 2.84042 14.6596 2.1875 13.8542 2.1875Z"
        stroke="#00C950" stroke-width="1.45833" stroke-linecap="round" stroke-linejoin="round" />
    <path
        d="M6.5599 8.02116C7.36531 8.02116 8.01823 7.36824 8.01823 6.56283C8.01823 5.75741 7.36531 5.10449 6.5599 5.10449C5.75448 5.10449 5.10156 5.75741 5.10156 6.56283C5.10156 7.36824 5.75448 8.02116 6.5599 8.02116Z"
        stroke="#00C950" stroke-width="1.45833" stroke-linecap="round" stroke-linejoin="round" />
    <path
        d="M15.3125 10.9379L13.0623 8.68772C12.7888 8.41433 12.4179 8.26074 12.0313 8.26074C11.6446 8.26074 11.2737 8.41433 11.0002 8.68772L4.375 15.3129"
        stroke="#00C950" stroke-width="1.45833" stroke-linecap="round" stroke-linejoin="round" />
</svg>
