<svg width="20" height="20" viewBox="0 0 20 20" fill="none" xmlns="http://www.w3.org/2000/svg">
    <path
        d="M16.4275 14.8212C16.4275 16.4283 13.5496 17.4997 9.99888 17.4997C6.44817 17.4997 3.57031 16.4283 3.57031 14.8212C3.57031 13.214 6.44817 12.1426 9.99888 12.1426C13.5496 12.1426 16.4275 13.214 16.4275 14.8212Z"
        fill="url(#paint0_radial_2143_30227)" />
    <path
        d="M16.4275 14.8212C16.4275 16.4283 13.5496 17.4997 9.99888 17.4997C6.44817 17.4997 3.57031 16.4283 3.57031 14.8212C3.57031 13.214 6.44817 12.1426 9.99888 12.1426C13.5496 12.1426 16.4275 13.214 16.4275 14.8212Z"
        fill="url(#paint1_radial_2143_30227)" />
    <path
        d="M9.99777 2.5C8.57697 2.5 7.21435 3.06441 6.2097 4.06907C5.20504 5.07373 4.64063 6.43634 4.64062 7.85715C4.64063 9.08286 5.33705 10.375 6.13313 11.47C6.9442 12.5875 7.92991 13.5979 8.6467 14.2771C9.01041 14.6252 9.49438 14.8194 9.99777 14.8194C10.5012 14.8194 10.9851 14.6252 11.3488 14.2771C12.0656 13.5979 13.0513 12.5875 13.8624 11.47C14.6574 10.375 15.3549 9.08286 15.3549 7.85715C15.3549 7.15364 15.2163 6.45701 14.9471 5.80705C14.6779 5.1571 14.2833 4.56653 13.7858 4.06907C13.2884 3.57161 12.6978 3.17701 12.0479 2.90779C11.3979 2.63857 10.7013 2.5 9.99777 2.5Z"
        fill="url(#paint2_linear_2143_30227)" />
    <path
        d="M11.6049 7.85714C11.6049 8.28338 11.4356 8.69217 11.1342 8.99357C10.8328 9.29496 10.424 9.46429 9.99777 9.46429C9.57153 9.46429 9.16274 9.29496 8.86135 8.99357C8.55995 8.69217 8.39062 8.28338 8.39062 7.85714C8.39062 7.4309 8.55995 7.02212 8.86135 6.72072C9.16274 6.41932 9.57153 6.25 9.99777 6.25C10.424 6.25 10.8328 6.41932 11.1342 6.72072C11.4356 7.02212 11.6049 7.4309 11.6049 7.85714Z"
        fill="url(#paint3_linear_2143_30227)" />
    <path
        d="M11.6049 7.85714C11.6049 8.28338 11.4356 8.69217 11.1342 8.99357C10.8328 9.29496 10.424 9.46429 9.99777 9.46429C9.57153 9.46429 9.16274 9.29496 8.86135 8.99357C8.55995 8.69217 8.39062 8.28338 8.39062 7.85714C8.39062 7.4309 8.55995 7.02212 8.86135 6.72072C9.16274 6.41932 9.57153 6.25 9.99777 6.25C10.424 6.25 10.8328 6.41932 11.1342 6.72072C11.4356 7.02212 11.6049 7.4309 11.6049 7.85714Z"
        fill="url(#paint4_linear_2143_30227)" />
    <defs>
        <radialGradient id="paint0_radial_2143_30227" cx="0" cy="0" r="1"
            gradientTransform="matrix(10.102 -1.78572 0.74535 4.21658 9.53924 13.9287)"
            gradientUnits="userSpaceOnUse">
            <stop stop-color="#7B7BFF" />
            <stop offset="0.502" stop-color="#A3A3FF" />
            <stop offset="1" stop-color="#CEB0FF" />
        </radialGradient>
        <radialGradient id="paint1_radial_2143_30227" cx="0" cy="0" r="1"
            gradientTransform="matrix(22.0408 11.6231 -25.3728 8.35315 -1.48031 9.1291)"
            gradientUnits="userSpaceOnUse">
            <stop offset="0.338" stop-color="#0FAFFF" />
            <stop offset="0.529" stop-color="#367AF2" />
        </radialGradient>
        <linearGradient id="paint2_linear_2143_30227" x1="2.29741" y1="-1.01964" x2="11.036"
            y2="12.9304" gradientUnits="userSpaceOnUse">
            <stop stop-color="#FC5D23" />
            <stop offset="1" stop-color="#DC593B" />
        </linearGradient>
        <linearGradient id="paint3_linear_2143_30227" x1="8.57705" y1="7.99964" x2="10.2506"
            y2="9.73964" gradientUnits="userSpaceOnUse">
            <stop stop-color="#FDFDFD" />
            <stop offset="1" stop-color="#FECBE6" />
        </linearGradient>
        <linearGradient id="paint4_linear_2143_30227" x1="9.35491" y1="5.89321" x2="10.5289"
            y2="10.12" gradientUnits="userSpaceOnUse">
            <stop stop-color="#FDFDFD" />
            <stop offset="1" stop-color="#B3E0FF" />
        </linearGradient>
    </defs>
</svg>
