<svg width="18" height="18" viewBox="0 0 18 18" fill="none" xmlns="http://www.w3.org/2000/svg">
    <path
        d="M14.5807 7.29134C14.5807 10.9321 10.5419 14.7237 9.18563 15.8948C9.05928 15.9898 8.90548 16.0412 8.7474 16.0412C8.58931 16.0412 8.43551 15.9898 8.30917 15.8948C6.95292 14.7237 2.91406 10.9321 2.91406 7.29134C2.91406 5.74424 3.52864 4.26051 4.62261 3.16655C5.71657 2.07259 7.2003 1.45801 8.7474 1.45801C10.2945 1.45801 11.7782 2.07259 12.8722 3.16655C13.9661 4.26051 14.5807 5.74424 14.5807 7.29134Z"
        stroke="#FB2C36" stroke-width="1.45833" stroke-linecap="round" stroke-linejoin="round" />
    <path
        d="M8.75 9.47949C9.95812 9.47949 10.9375 8.50012 10.9375 7.29199C10.9375 6.08387 9.95812 5.10449 8.75 5.10449C7.54188 5.10449 6.5625 6.08387 6.5625 7.29199C6.5625 8.50012 7.54188 9.47949 8.75 9.47949Z"
        stroke="#FB2C36" stroke-width="1.45833" stroke-linecap="round" stroke-linejoin="round" />
</svg>
