<svg width="32" height="24" viewBox="0 0 32 24" fill="none" xmlns="http://www.w3.org/2000/svg">
    <path
        d="M21.5725 11.1578C21.5725 12.5368 20.4555 13.6476 19.0827 13.6476H18.0905C16.7051 13.6476 15.6006 12.5369 15.6006 11.1578V5.3293C15.6006 3.95646 16.7051 2.84568 18.0905 2.84568H19.0827C20.3744 2.84568 21.4352 3.82538 21.56 5.07969C22.2777 5.28562 22.9953 5.54772 23.7067 5.84098C23.8689 5.90962 24.0249 5.97826 24.1872 6.05315V4.24973C24.1872 1.90341 22.2964 0 19.9502 0H17.217C14.8769 0 12.9736 1.90325 12.9736 4.24973V15.5632H13.8285C14.5649 14.7021 15.6444 14.2028 16.8114 14.2028C18.9955 14.2028 20.7739 15.9813 20.7739 18.1654C20.7739 20.3557 18.9955 22.1342 16.8114 22.1342C15.6444 22.1342 14.5587 21.6349 13.8223 20.7738H13.1047C13.554 22.6272 15.2263 24 17.217 24H19.9503C22.2966 24 24.1872 22.0967 24.1872 19.7567V11.8127C23.039 11.3073 22.1654 11.014 21.5725 10.8455V11.1578Z"
        fill="white" />
    <path
        d="M25.8176 7.92164C25.1999 7.57062 24.568 7.24769 23.9206 6.95595C23.7303 6.87015 23.5384 6.78746 23.345 6.70634C22.5743 6.38497 21.7849 6.10572 20.9799 5.8764C20.1968 5.65332 19.37 5.40215 18.5462 5.43801C17.2654 5.49261 16.2529 6.74221 16.2529 7.98246C16.2529 9.4099 17.4089 10.5659 18.8301 10.5659C19.6008 10.5659 20.2903 10.2274 20.7568 9.69386C20.8925 9.71414 22.3387 9.93098 25.1591 11.2227C25.9703 11.594 26.8361 11.8171 27.702 11.892C28.8377 11.9871 29.9875 11.5737 30.7051 10.6876C31.0155 10.3023 31.2729 9.80776 31.3618 9.18685C29.4492 9.32882 27.5088 8.88888 25.8176 7.92164Z"
        fill="white" />
    <path
        d="M9.34817 20.0063L8.70542 20.7739H6.58375L6.44646 20.5867L4.65551 18.1655L6.1407 16.1561L6.30295 15.944L6.59624 15.5633H11.0141V14.1031C11.0141 13.4541 10.4899 12.9237 9.84095 12.9237H9.55078L9.55702 10.4073C9.56014 9.32624 9.14047 8.30908 8.37763 7.54464C7.61475 6.77864 6.59918 6.35742 5.51963 6.35742C4.99234 6.35742 4.47906 6.45727 3.99391 6.65539C2.55241 7.24355 1.58361 8.74899 1.58361 10.4011V10.88C1.58361 11.2248 1.86286 11.504 2.20763 11.504C2.5524 11.504 2.83165 11.2248 2.83165 10.88V10.4011C2.83165 9.24976 3.48842 8.20919 4.4666 7.81138C5.48377 7.39639 6.70997 7.63821 7.49466 8.4245C8.02195 8.95335 8.31058 9.65537 8.30902 10.4026L8.30278 12.9221L1.17316 12.9237C0.524178 12.9237 0 13.4541 0 14.1031V19.3824C0 21.9346 2.05925 24 4.61157 24H6.40875C7.78783 24 9.02341 23.3947 9.86581 22.4336C10.2839 21.9532 10.5709 21.3853 10.7332 20.7738H9.897L9.34817 20.0063Z"
        fill="white" />
    <path
        d="M16.8113 21.1979C18.4899 21.1979 19.8378 19.8438 19.8378 18.1652C19.8378 16.499 18.4899 15.1387 16.8113 15.1387C15.7629 15.1387 14.8269 15.6691 14.2965 16.499H7.05783L6.89558 16.7112L5.82227 18.1651L6.83316 19.5318L7.05781 19.8375H8.26839L9.41036 18.4772L10.3776 19.8375H10.6334L10.9579 19.4506L11.7691 18.4772L12.7426 19.8375H14.2902C14.8206 20.6612 15.7567 21.1979 16.8113 21.1979ZM16.9423 17.641C16.9423 17.2978 17.2231 17.017 17.5664 17.017C17.9158 17.017 18.1904 17.2978 18.1904 17.641V18.6894C18.1904 19.0388 17.9158 19.3134 17.5664 19.3134C17.2231 19.3134 16.9423 19.0388 16.9423 18.6894V17.641Z"
        fill="white" />
</svg>
