<svg width="94" height="133" viewBox="0 0 94 133" fill="none" xmlns="http://www.w3.org/2000/svg">
    <path
        d="M31.048 16.6069C22.2889 25.366 15.1182 32.6502 15.1182 32.809C15.1182 33.2402 17.5689 35.3279 19.0666 36.1675C22.2435 37.9374 26.555 38.2324 29.5049 36.8936C30.5488 36.4171 32.0691 35.0102 38.8314 28.2933C43.279 23.8911 46.9778 20.2603 47.0686 20.215C47.1594 20.1923 53.5585 26.5006 61.2965 34.2386L75.3656 48.3077L70.986 52.6646L66.6291 57.0442L56.8716 47.2866L47.114 37.529L42.3032 42.3624L37.4698 47.1731L65.5626 75.2659L93.6327 103.336V75.1978V47.0596L70.5095 23.9137C57.7792 11.1835 47.2955 0.745171 47.182 0.722473C47.0913 0.677094 39.8298 7.82509 31.048 16.6069Z"
        fill="#DC593B" />
    <path
        d="M0.368164 58.1337V86.0903L23.741 109.463C36.5847 122.307 47.1365 132.768 47.2046 132.723C48.8838 131.225 79.7904 100.091 79.7904 99.9098C79.7904 99.4333 77.0673 97.096 75.7285 96.4379C73.1643 95.1445 70.6001 94.6679 68.0132 95.0537C64.9498 95.4849 65.0178 95.4395 55.6914 104.743L47.1365 113.298L46.0473 112.277C43.6646 110.03 18.9757 85.2734 18.9757 85.1146C18.9757 85.0238 20.9272 83.0042 23.2871 80.6442L27.5986 76.3328L37.3562 86.0903L47.1138 95.8479L51.9245 91.0145L56.7579 86.2038L28.7332 58.1791C13.3253 42.7712 0.640469 30.1544 0.549701 30.1544C0.43624 30.1544 0.368164 42.7485 0.368164 58.1337Z"
        fill="#DC593B" />
</svg>
