<svg width="14" height="14" viewBox="0 0 14 14" fill="none" xmlns="http://www.w3.org/2000/svg">
    <g clip-path="url(#clip0_63_1521)">
        <path
            d="M1.74548 9.5328C1.83125 9.74916 1.85035 9.98624 1.80031 10.2135L1.17906 12.1327C1.15904 12.23 1.16422 12.3309 1.1941 12.4256C1.22398 12.5204 1.27757 12.606 1.34978 12.6742C1.422 12.7425 1.51046 12.7911 1.60676 12.8156C1.70306 12.8401 1.80402 12.8395 1.90006 12.814L3.89098 12.2319C4.10548 12.1893 4.32762 12.2079 4.53206 12.2855C5.7777 12.8673 7.18878 12.9903 8.51632 12.6331C9.84386 12.2758 11.0026 11.4611 11.788 10.3328C12.5734 9.20443 12.9351 7.83495 12.8092 6.46595C12.6833 5.09695 12.0779 3.8164 11.0999 2.85024C10.1218 1.88409 8.83397 1.2944 7.46353 1.18524C6.0931 1.07607 4.72814 1.45444 3.60949 2.25358C2.49083 3.05272 1.69037 4.22128 1.34933 5.55309C1.00829 6.88489 1.14859 8.29435 1.74548 9.5328Z"
            stroke="#EE4E2E" stroke-width="1.16667" stroke-linecap="round"
            stroke-linejoin="round" />
    </g>
    <defs>
        <clipPath id="clip0_63_1521">
            <rect width="14" height="14" fill="white" />
        </clipPath>
    </defs>
</svg>
