<svg width="18" height="18" viewBox="0 0 18 18" fill="none" xmlns="http://www.w3.org/2000/svg">
    <path
        d="M10.6279 15.6679C13.7652 15.4594 16.2642 12.9249 16.4698 9.74318C16.51 9.12053 16.51 8.47568 16.4698 7.85303C16.2642 4.67129 13.7652 2.13685 10.6279 1.9283C9.55762 1.85716 8.4402 1.85731 7.37205 1.9283C4.23479 2.13685 1.73581 4.67129 1.53018 7.85303C1.48994 8.47568 1.48994 9.12053 1.53018 9.74318C1.60507 10.902 2.11757 11.975 2.72093 12.881C3.07126 13.5152 2.84005 14.3069 2.47516 14.9984C2.21206 15.497 2.08051 15.7462 2.18613 15.9263C2.29176 16.1064 2.52769 16.1122 2.99957 16.1236C3.93275 16.1464 4.56201 15.8818 5.06151 15.5135C5.3448 15.3046 5.48645 15.2001 5.58408 15.1881C5.6817 15.1761 5.87383 15.2552 6.25801 15.4135C6.6033 15.5557 7.00422 15.6434 7.37205 15.6679C8.4402 15.7389 9.55762 15.739 10.6279 15.6679Z"
        stroke="#212121" stroke-width="1.5" stroke-linejoin="round" />
    <path d="M8.99661 9H9.00336M11.9932 9H12M6 9H6.00673" stroke="#212121" stroke-width="2"
        stroke-linecap="round" stroke-linejoin="round" />
</svg>
