<svg width="14" height="14" viewBox="0 0 14 14" fill="none" xmlns="http://www.w3.org/2000/svg">
    <path
        d="M7 7.58333C7.32216 7.58333 7.58333 7.32217 7.58333 7C7.58333 6.67784 7.32216 6.41667 7 6.41667C6.67783 6.41667 6.41666 6.67784 6.41666 7C6.41666 7.32217 6.67783 7.58333 7 7.58333Z"
        stroke="#1E2939" stroke-width="1.16667" stroke-linecap="round" stroke-linejoin="round" />
    <path
        d="M7 3.5C7.32216 3.5 7.58333 3.23883 7.58333 2.91667C7.58333 2.5945 7.32216 2.33333 7 2.33333C6.67783 2.33333 6.41666 2.5945 6.41666 2.91667C6.41666 3.23883 6.67783 3.5 7 3.5Z"
        stroke="#1E2939" stroke-width="1.16667" stroke-linecap="round" stroke-linejoin="round" />
    <path
        d="M7 11.6667C7.32216 11.6667 7.58333 11.4055 7.58333 11.0833C7.58333 10.7612 7.32216 10.5 7 10.5C6.67783 10.5 6.41666 10.7612 6.41666 11.0833C6.41666 11.4055 6.67783 11.6667 7 11.6667Z"
        stroke="#1E2939" stroke-width="1.16667" stroke-linecap="round" stroke-linejoin="round" />
</svg>
