<svg width="18" height="18" viewBox="0 0 18 18" fill="none" xmlns="http://www.w3.org/2000/svg">
    <g clip-path="url(#clip0_63_1526)">
        <path
            d="M10.086 12.0808C10.2366 12.15 10.4062 12.1658 10.567 12.1256C10.7278 12.0855 10.8701 11.9917 10.9705 11.8599L11.2293 11.5208C11.3652 11.3397 11.5413 11.1927 11.7438 11.0914C11.9463 10.9902 12.1696 10.9375 12.396 10.9375H14.5835C14.9703 10.9375 15.3412 11.0911 15.6147 11.3646C15.8882 11.6381 16.0418 12.009 16.0418 12.3958V14.5833C16.0418 14.9701 15.8882 15.341 15.6147 15.6145C15.3412 15.888 14.9703 16.0416 14.5835 16.0416C11.1025 16.0416 7.76413 14.6588 5.30272 12.1974C2.8413 9.73601 1.4585 6.39761 1.4585 2.91665C1.4585 2.52987 1.61214 2.15894 1.88563 1.88545C2.15912 1.61196 2.53006 1.45831 2.91683 1.45831H5.10433C5.4911 1.45831 5.86204 1.61196 6.13553 1.88545C6.40902 2.15894 6.56266 2.52987 6.56266 2.91665V5.10415C6.56266 5.33055 6.50995 5.55384 6.4087 5.75633C6.30745 5.95883 6.16045 6.13497 5.97933 6.27081L5.63808 6.52675C5.50422 6.62896 5.40986 6.77436 5.37105 6.93826C5.33224 7.10215 5.35136 7.27442 5.42516 7.42581C6.4217 9.44988 8.06068 11.0868 10.086 12.0808Z"
            stroke="#364153" stroke-width="1.45833" stroke-linecap="round"
            stroke-linejoin="round" />
    </g>
    <defs>
        <clipPath id="clip0_63_1526">
            <rect width="17.5" height="17.5" fill="white" />
        </clipPath>
    </defs>
</svg>
