<svg width="14" height="14" viewBox="0 0 14 14" fill="none" xmlns="http://www.w3.org/2000/svg">
    <g clip-path="url(#clip0_1_1194)">
        <path
            d="M8.06863 9.66466C8.1891 9.71999 8.32483 9.73263 8.45345 9.7005C8.58207 9.66837 8.6959 9.59339 8.77621 9.48791L8.98329 9.21666C9.09196 9.07176 9.23288 8.95416 9.39488 8.87316C9.55688 8.79216 9.73551 8.74999 9.91663 8.74999H11.6666C11.976 8.74999 12.2728 8.87291 12.4916 9.0917C12.7104 9.31049 12.8333 9.60724 12.8333 9.91666V11.6667C12.8333 11.9761 12.7104 12.2728 12.4916 12.4916C12.2728 12.7104 11.976 12.8333 11.6666 12.8333C8.88185 12.8333 6.21114 11.7271 4.24201 9.75795C2.27287 7.78881 1.16663 5.1181 1.16663 2.33332C1.16663 2.0239 1.28954 1.72716 1.50833 1.50837C1.72713 1.28957 2.02387 1.16666 2.33329 1.16666H4.08329C4.39271 1.16666 4.68946 1.28957 4.90825 1.50837C5.12704 1.72716 5.24996 2.0239 5.24996 2.33332V4.08332C5.24996 4.26444 5.20779 4.44307 5.12679 4.60507C5.04579 4.76707 4.92819 4.90799 4.78329 5.01666L4.51029 5.22141C4.4032 5.30318 4.32772 5.4195 4.29667 5.55061C4.26562 5.68172 4.28092 5.81954 4.33996 5.94066C5.13719 7.55991 6.44837 8.86946 8.06863 9.66466Z"
            stroke="#6A7282" stroke-width="1.16667" stroke-linecap="round"
            stroke-linejoin="round" />
    </g>
    <defs>
        <clipPath id="clip0_1_1194">
            <rect width="14" height="14" fill="white" />
        </clipPath>
    </defs>
</svg>
