<svg width="25" height="24" viewBox="0 0 25 24" fill="none" xmlns="http://www.w3.org/2000/svg">
    <path d="M3.65675 10.7939H0V16.9099H3.65675V10.7939Z" fill="white" />
    <path
        d="M18.6344 10.7939V16.9099H16.417L15.7557 15.8581C15.6779 15.7413 15.7557 15.5465 15.9113 15.5465H16.1058C16.2614 15.5465 16.3392 15.3907 16.2614 15.2348L14.9776 13.2481L15.2888 14.7284C15.2888 14.8453 15.211 14.9622 15.0943 14.9622H14.7442C14.6275 14.9622 14.5108 15.079 14.5497 15.1959L14.9776 16.9099H6.26367V10.7939H10.2316V11.3393C10.2316 11.651 10.3872 11.9236 10.6595 12.0405C11.2431 12.3132 11.8266 12.469 12.449 12.469C13.0325 12.469 13.655 12.3132 14.2385 12.0405C14.5108 11.9236 14.6664 11.651 14.6664 11.3393V10.7939H18.6344Z"
        fill="white" />
    <path d="M24.897 10.7939H21.2402V16.9099H24.897V10.7939Z" fill="white" />
    <path
        d="M20.851 10.4039V17.299C20.851 17.7664 20.5398 18.156 20.1508 18.156H19.7618C19.3727 18.156 19.0615 17.7664 19.0615 17.299V10.4039C19.0615 9.93643 19.3727 9.54688 19.7618 9.54688H20.1508C20.5398 9.54688 20.851 9.93643 20.851 10.4039Z"
        fill="white" />
    <path
        d="M5.87443 10.4039V17.299C5.87443 17.7664 5.56322 18.156 5.1742 18.156H4.78519C4.39617 18.156 4.08496 17.7664 4.08496 17.299V10.4039C4.08496 9.93643 4.39617 9.54688 4.78519 9.54688H5.1742C5.52432 9.54688 5.87443 9.93643 5.87443 10.4039Z"
        fill="white" />
    <path
        d="M14.2767 8.10547V11.3388C14.2767 11.4946 14.1989 11.6504 14.0433 11.6893C12.954 12.1958 11.9037 12.1958 10.8145 11.6893C10.6978 11.6114 10.5811 11.4946 10.5811 11.3388V8.10547H14.2767Z"
        fill="white" />
    <path
        d="M15.2107 6.97647V7.36602C15.2107 7.59975 15.0162 7.75557 14.8217 7.75557H10.1146C9.88119 7.75557 9.72559 7.56079 9.72559 7.36602V6.97647C9.72559 6.74273 9.92009 6.58691 10.1146 6.58691H14.7828C15.0162 6.58691 15.2107 6.74273 15.2107 6.97647Z"
        fill="white" />
    <path
        d="M14.1597 5.26358V6.15955H10.7363V5.26358C10.7363 5.02984 10.9308 4.87402 11.1253 4.87402H13.7707C14.0041 4.87402 14.1597 5.0688 14.1597 5.26358Z"
        fill="white" />
    <path
        d="M13.0323 0.588039V0.821771C12.8378 0.821771 12.6433 0.821771 12.4488 0.821771C12.2543 0.821771 12.0597 0.821771 11.8652 0.821771V0.588039C11.8652 0.237442 12.1375 0.00371122 12.4877 0.00371122C12.7989 -0.035244 13.0323 0.237442 13.0323 0.588039Z"
        fill="white" />
    <path
        d="M13.0311 2.84758V4.4837H11.8252V2.84758C12.0197 2.84758 12.2142 2.84758 12.4087 2.84758C12.6421 2.80862 12.8366 2.80862 13.0311 2.84758Z"
        fill="white" />
    <path
        d="M16.6488 0.900391V2.69233C15.4429 2.53651 14.2369 2.4586 13.031 2.41964C12.642 2.41964 12.2141 2.41964 11.825 2.41964C10.6191 2.41964 9.41314 2.53651 8.24609 2.69233V0.900391C9.45204 1.05621 10.658 1.17308 11.825 1.21203C12.2141 1.21203 12.642 1.21203 13.031 1.21203C14.2369 1.21203 15.4429 1.09517 16.6488 0.900391Z"
        fill="white" />
    <path
        d="M13.4594 18.5065C13.5761 18.7402 14.2374 19.9479 14.2374 20.3764C14.2374 20.8828 13.8095 21.3113 13.3038 21.3113C12.798 21.3113 12.3701 20.8828 12.3701 20.3764C12.3701 19.9479 13.0314 18.7402 13.1481 18.5065C13.1871 18.4286 13.2649 18.3896 13.3038 18.3896C13.3427 18.3896 13.4205 18.4286 13.4594 18.5065Z"
        fill="white" />
    <path
        d="M15.7553 21.195C15.872 21.4287 16.5333 22.6363 16.5333 23.0648C16.5333 23.5713 16.1054 23.9998 15.5997 23.9998C15.055 23.9998 14.666 23.5713 14.666 23.0648C14.666 22.6363 15.3273 21.4287 15.444 21.195C15.4829 21.1171 15.5608 21.0781 15.5997 21.0781C15.6386 21.0781 15.7164 21.156 15.7553 21.195Z"
        fill="white" />
    <path
        d="M18.8272 20.4164C18.8272 20.9228 18.3993 21.3513 17.8936 21.3513C17.3879 21.3513 16.96 20.9228 16.96 20.4164C16.96 19.9879 17.6213 18.7803 17.738 18.5466C17.7769 18.4686 17.8547 18.4297 17.8936 18.4297C17.9714 18.4297 18.0492 18.4686 18.0492 18.5466C18.2048 18.7413 18.8272 19.9489 18.8272 20.4164Z"
        fill="white" />
</svg>
