<svg width="14" height="14" viewBox="0 0 14 14" fill="none" xmlns="http://www.w3.org/2000/svg">
    <g clip-path="url(#clip0_17_2956)">
        <path
            d="M6.71834 1.33786C6.74388 1.28625 6.78335 1.2428 6.83227 1.21243C6.8812 1.18205 6.93764 1.16595 6.99523 1.16595C7.05282 1.16595 7.10926 1.18205 7.15819 1.21243C7.20712 1.2428 7.24658 1.28625 7.27212 1.33786L8.61871 4.06541C8.70742 4.24494 8.83836 4.40026 9.00031 4.51804C9.16226 4.63582 9.35036 4.71254 9.54849 4.74162L12.5599 5.18232C12.617 5.19059 12.6706 5.21466 12.7147 5.2518C12.7588 5.28895 12.7916 5.3377 12.8094 5.39253C12.8273 5.44736 12.8294 5.50608 12.8156 5.56206C12.8018 5.61804 12.7726 5.66904 12.7313 5.70929L10.5535 7.83001C10.4098 7.96998 10.3024 8.14275 10.2403 8.33345C10.1783 8.52416 10.1635 8.72709 10.1973 8.92477L10.7114 11.9211C10.7215 11.9781 10.7154 12.0368 10.6937 12.0905C10.672 12.1442 10.6356 12.1907 10.5888 12.2248C10.5419 12.2588 10.4864 12.279 10.4286 12.283C10.3709 12.287 10.3131 12.2747 10.262 12.2475L7.57 10.8321C7.39263 10.739 7.19528 10.6903 6.99494 10.6903C6.7946 10.6903 6.59725 10.739 6.41987 10.8321L3.72846 12.2475C3.67735 12.2746 3.61968 12.2867 3.562 12.2826C3.50432 12.2785 3.44895 12.2583 3.40219 12.2243C3.35542 12.1903 3.31914 12.1438 3.29747 12.0902C3.2758 12.0366 3.26961 11.978 3.2796 11.9211L3.79317 8.92535C3.82709 8.72758 3.81239 8.52452 3.75034 8.3337C3.68829 8.14287 3.58075 7.97001 3.43699 7.83001L1.25914 5.70988C1.21752 5.66967 1.18802 5.61859 1.17401 5.56244C1.16001 5.50629 1.16205 5.44733 1.17991 5.39229C1.19777 5.33724 1.23074 5.28832 1.27504 5.2511C1.31935 5.21387 1.37323 5.18984 1.43053 5.18174L4.44139 4.74162C4.63974 4.71276 4.8281 4.63614 4.99027 4.51835C5.15244 4.40055 5.28356 4.24512 5.37234 4.06541L6.71834 1.33786Z"
            stroke="#364153" stroke-width="1.16587" stroke-linecap="round"
            stroke-linejoin="round" />
    </g>
    <defs>
        <clipPath id="clip0_17_2956">
            <rect width="13.9905" height="13.9905" fill="white" />
        </clipPath>
    </defs>
</svg>
