<svg width="9" height="9" viewBox="0 0 9 9" fill="none" xmlns="http://www.w3.org/2000/svg">
    <g clip-path="url(#clip0_2212_39197)">
        <path
            d="M4.19987 0.836029C4.21585 0.803749 4.24053 0.776577 4.27113 0.75758C4.30173 0.738582 4.33703 0.728516 4.37305 0.728516C4.40907 0.728516 4.44437 0.738582 4.47497 0.75758C4.50557 0.776577 4.53025 0.803749 4.54623 0.836029L5.38842 2.54191C5.4439 2.65419 5.5258 2.75133 5.62708 2.825C5.72837 2.89866 5.84601 2.94664 5.96993 2.96483L7.85336 3.24046C7.88905 3.24563 7.92258 3.26068 7.95016 3.28391C7.97773 3.30715 7.99826 3.33764 8.00941 3.37193C8.02057 3.40622 8.0219 3.44295 8.01327 3.47796C8.00463 3.51297 7.98637 3.54487 7.96055 3.57004L6.59847 4.89639C6.50864 4.98393 6.44143 5.09199 6.40263 5.21126C6.36382 5.33053 6.35458 5.45745 6.37571 5.58108L6.69727 7.45504C6.70357 7.49071 6.69972 7.52743 6.68615 7.56102C6.67258 7.5946 6.64985 7.6237 6.62054 7.64499C6.59123 7.66627 6.55653 7.67889 6.5204 7.68141C6.48426 7.68392 6.44815 7.67623 6.41618 7.65921L4.73253 6.774C4.62159 6.71575 4.49817 6.68531 4.37287 6.68531C4.24757 6.68531 4.12414 6.71575 4.01321 6.774L2.32993 7.65921C2.29796 7.67613 2.26189 7.68374 2.22582 7.68117C2.18975 7.67861 2.15512 7.66597 2.12587 7.6447C2.09662 7.62343 2.07393 7.59438 2.06037 7.56085C2.04682 7.52732 2.04295 7.49066 2.0492 7.45504L2.3704 5.58145C2.39161 5.45775 2.38242 5.33076 2.34361 5.21141C2.3048 5.09206 2.23754 4.98395 2.14764 4.89639L0.785552 3.5704C0.759518 3.54526 0.74107 3.51331 0.732309 3.47819C0.723548 3.44307 0.724826 3.4062 0.735997 3.37178C0.747169 3.33735 0.767785 3.30675 0.795497 3.28347C0.823209 3.26019 0.856902 3.24516 0.892739 3.24009L2.77581 2.96483C2.89986 2.94678 3.01767 2.89886 3.1191 2.82519C3.22052 2.75152 3.30253 2.6543 3.35805 2.54191L4.19987 0.836029Z"
            fill="#F0B100" stroke="#F0B100" stroke-width="0.729167" stroke-linecap="round"
            stroke-linejoin="round" />
    </g>
    <defs>
        <clipPath id="clip0_2212_39197">
            <rect width="8.75" height="8.75" fill="white" />
        </clipPath>
    </defs>
</svg>
