<svg width="29" height="29" viewBox="0 0 29 29" fill="none" xmlns="http://www.w3.org/2000/svg">
    <path
        d="M17.9534 15.4566C18.5304 14.568 18.7686 13.617 18.6232 12.7778L18.581 12.5347L18.3784 12.7227C18.3707 12.73 18.3626 12.7377 18.3545 12.7458L15.7738 15.3054L13.5789 14.8743L13.1705 12.6717L15.7515 10.112C15.7653 10.0983 15.7783 10.0849 15.7892 10.0727L15.9598 9.8827L15.7394 9.83205C15.5587 9.79072 15.3536 9.77654 15.1296 9.79113C14.7702 9.81422 14.3532 9.90782 13.8544 10.0776C12.4703 10.5946 11.2912 11.8787 10.9155 13.2738L10.9074 13.3042C10.8507 13.5367 10.7057 14.228 10.589 14.7831L10.5837 14.807C10.4974 15.2179 10.4159 15.6057 10.3815 15.7572L10.3689 15.8115L7.76677 18.1949C7.04431 17.049 6.62696 15.6952 6.62696 14.245C6.62737 14.0222 6.63993 13.8042 6.66059 13.5894C6.67639 13.4107 6.70273 13.2353 6.7311 13.0602C6.73312 13.0489 6.73434 13.0371 6.73636 13.0258C6.88912 12.1064 7.20963 11.245 7.66872 10.471C8.55528 8.82676 9.88189 7.28743 11.153 5.53982C13.3998 2.45021 14.1818 0 14.1818 0C14.1818 0 14.9638 2.45021 17.2111 5.53982C18.4822 7.28743 19.8088 8.82636 20.6953 10.471C21.1548 11.245 21.4749 12.1064 21.6281 13.0262C21.6301 13.0371 21.6313 13.0481 21.6329 13.059C21.6613 13.2345 21.6876 13.4099 21.7034 13.589C21.7241 13.8038 21.7363 14.0218 21.7371 14.2446C21.7371 18.3727 18.3545 21.7188 14.1818 21.7188C12.7385 21.7188 11.3896 21.3185 10.2425 20.6236L12.6113 18.0802L12.6656 18.068C12.807 18.0368 13.1753 17.9631 13.6016 17.8776L13.6243 17.8731C14.1717 17.7633 14.8528 17.6272 15.0967 17.5709L15.1539 17.5567C16.2204 17.2982 17.2674 16.5125 17.9534 15.4566ZM28.0529 11.796L25.2813 11.4512L25.227 11.2458C24.9681 10.2689 24.5775 9.32758 24.067 8.44912L23.96 8.26516L25.678 6.06374C25.7882 5.92111 25.7765 5.72216 25.6505 5.59047L24.2084 4.15365L22.7732 2.71318C22.7039 2.64673 22.6135 2.61026 22.5187 2.61026C22.4377 2.61026 22.3643 2.63539 22.3003 2.68482L20.0981 4.40325L19.9141 4.29628C19.0356 3.78574 18.0948 3.39553 17.1175 3.13621C17.4335 3.65243 17.8022 4.21281 18.2285 4.79913C18.5911 5.29752 18.9651 5.7874 19.3266 6.26107C20.2476 7.46774 21.1175 8.60755 21.7906 9.85069C22.3303 10.7668 22.6929 11.7636 22.868 12.8143C22.8712 12.8333 22.8737 12.8491 22.8753 12.8593C22.9061 13.0497 22.9373 13.2559 22.9567 13.4743C22.9822 13.7426 22.9948 13.9938 22.9952 14.2418V14.2446C22.9952 15.4245 22.7614 16.57 22.3003 17.6487C21.8554 18.6892 21.2192 19.6228 20.4093 20.4242C19.6001 21.2245 18.658 21.8534 17.6086 22.2922C16.5226 22.7468 15.3698 22.977 14.1822 22.977C12.9946 22.977 11.8418 22.7464 10.7555 22.2922C10.2693 22.0888 9.80612 21.8449 9.36891 21.562L5.57589 25.6346L5.58764 25.6468L5.59047 25.6496C5.65976 25.7161 5.75012 25.753 5.84534 25.753C5.92597 25.753 5.99931 25.7278 6.06333 25.6784L8.26557 23.9596L8.44953 24.0665C9.32799 24.5771 10.2689 24.9677 11.2462 25.2266L11.4516 25.2809L11.7964 28.0537C11.8175 28.2303 11.9678 28.3636 12.1457 28.3636H16.2179C16.3958 28.3636 16.5461 28.2303 16.5676 28.052L16.9124 25.2809L17.1175 25.2266C18.0948 24.9677 19.0356 24.5771 19.9141 24.0665L20.0981 23.9596C20.0981 23.9596 22.2995 25.6776 22.3003 25.6784C22.3643 25.7278 22.4377 25.753 22.5187 25.753C22.6135 25.753 22.7039 25.7165 22.7728 25.65L22.7752 25.6476L24.2096 24.2076L25.6496 22.7728C25.7761 22.6411 25.7882 22.4425 25.6788 22.3003L23.9596 20.0977L24.0665 19.9137C24.5771 19.0352 24.9677 18.0944 25.2266 17.117L25.2809 16.9116L28.0529 16.5668C28.2303 16.5461 28.3636 16.3962 28.3636 16.2179V12.1457C28.3636 11.9678 28.2303 11.8175 28.0529 11.796ZM6.06333 17.6491C5.60222 16.5704 5.36843 15.425 5.36843 14.245V14.2422C5.36924 13.993 5.3818 13.7418 5.40732 13.4739C5.42677 13.2572 5.45757 13.0517 5.48836 12.8617C5.48998 12.8512 5.49242 12.8349 5.49566 12.8151C5.6707 11.7644 6.03335 10.7676 6.57307 9.8515C7.2461 8.60877 8.11646 7.46814 9.03747 6.26147C9.3989 5.7878 9.77289 5.29792 10.1355 4.79953C10.5618 4.21362 10.9309 3.65283 11.2474 3.13661L11.2466 3.13702C10.2697 3.39594 9.32839 3.78614 8.44993 4.29709L8.26597 4.40406L6.06455 2.68604C6.00012 2.6362 5.92638 2.61067 5.84534 2.61067C5.75052 2.61067 5.66017 2.64714 5.59047 2.7144L4.15446 4.15568L2.71399 5.59088C2.58798 5.72216 2.57582 5.9199 2.68401 6.06171C2.68442 6.06212 2.68482 6.06252 2.68482 6.06293L4.40366 8.26557L4.29669 8.44953C3.78573 9.32799 3.39553 10.2689 3.13661 11.2462L3.08232 11.4516L0.309974 11.7964C0.133309 11.8175 0 11.9678 0 12.1457V16.2179C0 16.3954 0.133309 16.5457 0.310379 16.5676L3.08272 16.9124L3.13702 17.1179C3.39594 18.0948 3.78614 19.0361 4.29709 19.9145L4.40406 20.0985L2.68685 22.2991L2.68644 22.2995L2.68604 22.2999C2.57582 22.4425 2.58757 22.6419 2.71359 22.7736L2.73993 22.7999L6.82551 19.0579C6.52931 18.6138 6.27485 18.1434 6.06333 17.6491Z"
        fill="white" />
</svg>
