<svg width="18" height="18" viewBox="0 0 18 18" fill="none" xmlns="http://www.w3.org/2000/svg">
    <path
        d="M8.7526 1.45801C4.7276 1.45801 1.46094 4.72467 1.46094 8.74967C1.46094 12.7747 4.7276 16.0413 8.7526 16.0413C12.7776 16.0413 16.0443 12.7747 16.0443 8.74967C16.0443 4.72467 12.7776 1.45801 8.7526 1.45801ZM8.7526 14.583C5.53698 14.583 2.91927 11.9653 2.91927 8.74967C2.91927 5.53405 5.53698 2.91634 8.7526 2.91634C11.9682 2.91634 14.5859 5.53405 14.5859 8.74967C14.5859 11.9653 11.9682 14.583 8.7526 14.583ZM11.3047 8.02051C11.9099 8.02051 12.3984 7.53197 12.3984 6.92676C12.3984 6.32155 11.9099 5.83301 11.3047 5.83301C10.6995 5.83301 10.2109 6.32155 10.2109 6.92676C10.2109 7.53197 10.6995 8.02051 11.3047 8.02051ZM6.20052 8.02051C6.80573 8.02051 7.29427 7.53197 7.29427 6.92676C7.29427 6.32155 6.80573 5.83301 6.20052 5.83301C5.59531 5.83301 5.10677 6.32155 5.10677 6.92676C5.10677 7.53197 5.59531 8.02051 6.20052 8.02051ZM8.7526 12.7601C10.4516 12.7601 11.8953 11.6955 12.4786 10.208H5.02656C5.6099 11.6955 7.05365 12.7601 8.7526 12.7601Z"
        fill="#F0B100" />
</svg>
