<svg width="9" height="9" viewBox="0 0 9 9" fill="none" xmlns="http://www.w3.org/2000/svg">
    <g clip-path="url(#clip0_2212_39188)">
        <path
            d="M3.6197 5.65048C3.58716 5.52431 3.52139 5.40916 3.42925 5.31703C3.33711 5.22489 3.22197 5.15912 3.0958 5.12657L0.85908 4.5498C0.820919 4.53897 0.787333 4.51599 0.763417 4.48434C0.739502 4.45269 0.726562 4.41411 0.726562 4.37444C0.726562 4.33477 0.739502 4.29619 0.763417 4.26454C0.787333 4.23289 0.820919 4.20991 0.85908 4.19907L3.0958 3.62194C3.22193 3.58942 3.33704 3.52371 3.42917 3.43164C3.52131 3.33957 3.5871 3.2245 3.6197 3.0984L4.19648 0.861679C4.2072 0.823368 4.23016 0.789616 4.26185 0.765573C4.29355 0.74153 4.33224 0.728516 4.37202 0.728516C4.4118 0.728516 4.4505 0.74153 4.48219 0.765573C4.51389 0.789616 4.53685 0.823368 4.54757 0.861679L5.12397 3.0984C5.15652 3.22457 5.22229 3.33971 5.31443 3.43185C5.40656 3.52399 5.52171 3.58976 5.64788 3.6223L7.8846 4.19871C7.92306 4.20932 7.95698 4.23226 7.98116 4.264C8.00533 4.29574 8.01842 4.33454 8.01842 4.37444C8.01842 4.41434 8.00533 4.45314 7.98116 4.48488C7.95698 4.51662 7.92306 4.53956 7.8846 4.55017L5.64788 5.12657C5.52171 5.15912 5.40656 5.22489 5.31443 5.31703C5.22229 5.40916 5.15652 5.52431 5.12397 5.65048L4.5472 7.8872C4.53648 7.92551 4.51352 7.95926 4.48183 7.98331C4.45013 8.00735 4.41144 8.02036 4.37166 8.02036C4.33187 8.02036 4.29318 8.00735 4.26149 7.98331C4.22979 7.95926 4.20683 7.92551 4.19611 7.8872L3.6197 5.65048Z"
            stroke="white" stroke-width="0.729167" stroke-linecap="round" stroke-linejoin="round" />
        <path d="M7.28906 1.09375V2.55208" stroke="white" stroke-width="0.729167"
            stroke-linecap="round" stroke-linejoin="round" />
        <path d="M8.02083 1.82227H6.5625" stroke="white" stroke-width="0.729167"
            stroke-linecap="round" stroke-linejoin="round" />
        <path d="M1.46094 6.19727V6.92643" stroke="white" stroke-width="0.729167"
            stroke-linecap="round" stroke-linejoin="round" />
        <path d="M1.82292 6.5625H1.09375" stroke="white" stroke-width="0.729167"
            stroke-linecap="round" stroke-linejoin="round" />
    </g>
    <defs>
        <clipPath id="clip0_2212_39188">
            <rect width="8.75" height="8.75" fill="white" />
        </clipPath>
    </defs>
</svg>
