<svg width="26" height="24" viewBox="0 0 26 24" fill="none" xmlns="http://www.w3.org/2000/svg">
    <path
        d="M22.2531 19.6783C21.6095 19.6783 21.2416 19.4024 20.8738 19.0346C20.506 18.6668 19.9543 18.207 19.1267 18.207C18.2071 18.207 17.7473 18.6668 17.3795 19.0346C17.0117 19.4024 16.6439 19.6783 16.0002 19.6783C15.3565 19.6783 14.9887 19.4024 14.6209 19.0346C14.253 18.6668 13.7013 18.207 12.8737 18.207C11.9542 18.207 11.4944 18.6668 11.1266 19.0346C10.7587 19.4024 10.3909 19.6783 9.74724 19.6783C9.10356 19.6783 8.73574 19.4024 8.36792 19.0346C8.0001 18.6668 7.44836 18.207 6.62077 18.207C5.70122 18.207 5.24144 18.6668 4.87362 19.0346C4.5058 19.4024 4.13798 19.6783 3.49429 19.6783C2.85061 19.6783 2.48279 19.4024 2.11497 19.0346C1.65519 18.6668 0.919551 18.207 0 18.207V19.7703C0.643686 19.7703 1.28737 20.0461 1.65519 20.414C2.02301 20.7818 2.57474 21.2416 3.40234 21.2416C4.22994 21.2416 4.78167 20.7818 5.14949 20.414C5.51731 20.0461 5.88513 19.7703 6.52881 19.7703C7.1725 19.7703 7.54032 20.0461 7.90814 20.414C8.27596 20.7818 8.82769 21.2416 9.65529 21.2416C10.5748 21.2416 11.0346 20.7818 11.4024 20.414C11.7703 20.0461 12.1381 19.7703 12.7818 19.7703C13.4254 19.7703 13.7933 20.0461 14.1611 20.414C14.5289 20.7818 15.0806 21.2416 15.9082 21.2416C16.8278 21.2416 17.2876 20.7818 17.6554 20.414C18.0232 20.0461 18.391 19.7703 19.0347 19.7703C19.6784 19.7703 20.0462 20.0461 20.414 20.414C20.7819 20.7818 21.3336 21.2416 22.1612 21.2416C23.0807 21.2416 23.5405 20.7818 23.9083 20.414C24.2762 20.0461 24.9198 19.7703 25.5635 19.7703V18.207C24.644 18.207 23.9083 18.6668 23.4486 19.0346C23.2646 19.4024 22.9888 19.6783 22.2531 19.6783Z"
        fill="white" />
    <path
        d="M22.2531 22.4371C21.6095 22.4371 21.2416 22.1612 20.8738 21.7934C20.506 21.4256 19.9543 20.9658 19.1267 20.9658C18.2071 20.9658 17.7473 21.4256 17.3795 21.7934C17.0117 22.1612 16.6439 22.4371 16.0002 22.4371C15.3565 22.4371 14.9887 22.1612 14.6209 21.7934C14.253 21.4256 13.7013 20.9658 12.8737 20.9658C11.9542 20.9658 11.4944 21.4256 11.1266 21.7934C10.7587 22.1612 10.3909 22.4371 9.74724 22.4371C9.10356 22.4371 8.73574 22.1612 8.36792 21.7934C8.0001 21.4256 7.44836 20.9658 6.62077 20.9658C5.70122 20.9658 5.24144 21.4256 4.87362 21.7934C4.5058 22.1612 4.13798 22.4371 3.49429 22.4371C2.85061 22.4371 2.48279 22.1612 2.11497 21.7934C1.65519 21.3336 0.919551 20.9658 0 20.9658V22.5291C0.643686 22.5291 1.28737 22.8049 1.65519 23.1727C2.02301 23.5406 2.57474 24.0003 3.40234 24.0003C4.22994 24.0003 4.78167 23.5406 5.14949 23.1727C5.51731 22.8049 5.88513 22.5291 6.52881 22.5291C7.1725 22.5291 7.54032 22.8049 7.90814 23.1727C8.27596 23.5406 8.82769 24.0003 9.65529 24.0003C10.5748 24.0003 11.0346 23.5406 11.4024 23.1727C11.7703 22.8049 12.1381 22.5291 12.7818 22.5291C13.4254 22.5291 13.7933 22.8049 14.1611 23.1727C14.5289 23.5406 15.0806 24.0003 15.9082 24.0003C16.8278 24.0003 17.2876 23.5406 17.6554 23.1727C18.0232 22.8049 18.391 22.5291 19.0347 22.5291C19.6784 22.5291 20.0462 22.8049 20.414 23.1727C20.7819 23.5406 21.3336 24.0003 22.1612 24.0003C23.0807 24.0003 23.5405 23.5406 23.9083 23.1727C24.2762 22.8049 24.9198 22.5291 25.5635 22.5291V20.9658C24.644 20.9658 23.9083 21.4256 23.4486 21.7934C23.2646 22.1612 22.9888 22.4371 22.2531 22.4371Z"
        fill="white" />
    <path
        d="M22.2531 17.0115C21.6095 17.0115 21.2416 16.7356 20.8738 16.3678C20.506 16 19.9543 15.5402 19.1267 15.5402C18.2071 15.5402 17.7473 16 17.3795 16.3678C17.0117 16.7356 16.6439 17.0115 16.0002 17.0115C15.3565 17.0115 14.9887 16.7356 14.6209 16.3678C14.253 16 13.7013 15.5402 12.8737 15.5402C11.9542 15.5402 11.4944 16 11.1266 16.3678C10.7587 16.7356 10.3909 17.0115 9.74724 17.0115C9.10356 17.0115 8.73574 16.7356 8.36792 16.3678C8.0001 16 7.44836 15.5402 6.62077 15.5402C5.70122 15.5402 5.24144 16 4.87362 16.3678C4.5058 16.7356 4.13798 17.0115 3.49429 17.0115C2.85061 17.0115 2.48279 16.7356 2.11497 16.3678C1.65519 15.908 0.919551 15.4482 0 15.4482V17.0115C0.643686 17.0115 1.28737 17.2873 1.65519 17.6552C2.02301 18.023 2.57474 18.4828 3.40234 18.4828C4.22994 18.4828 4.78167 18.023 5.14949 17.6552C5.51731 17.2873 5.88513 17.0115 6.52881 17.0115C7.1725 17.0115 7.54032 17.2873 7.90814 17.6552C8.27596 18.023 8.82769 18.4828 9.65529 18.4828C10.5748 18.4828 11.0346 18.023 11.4024 17.6552C11.7703 17.2873 12.1381 17.0115 12.7818 17.0115C13.4254 17.0115 13.7933 17.2873 14.1611 17.6552C14.5289 18.023 15.0806 18.4828 15.9082 18.4828C16.8278 18.4828 17.2876 18.023 17.6554 17.6552C18.0232 17.2873 18.391 17.0115 19.0347 17.0115C19.6784 17.0115 20.0462 17.2873 20.414 17.6552C20.7819 18.023 21.3336 18.4828 22.1612 18.4828C23.0807 18.4828 23.5405 18.023 23.9083 17.6552C24.2762 17.2873 24.9198 17.0115 25.5635 17.0115V15.4482C24.644 15.4482 23.9083 15.908 23.4486 16.2758C23.2646 16.6437 22.9888 17.0115 22.2531 17.0115Z"
        fill="white" />
    <path
        d="M21.0577 7.44836V3.40234C21.0577 2.48279 20.6899 1.65519 20.0462 1.01151C19.4025 0.367821 18.5749 0 17.6554 0C16.7358 0 15.9082 0.367821 15.2646 0.919551C14.6209 0.275865 13.7933 0 12.8737 0C10.9427 0 9.47152 1.56324 9.47152 3.40219V7.44822H0V14.345C0.643686 14.345 1.28737 14.6209 1.65519 14.9887C2.02301 15.3565 2.57474 15.8163 3.40234 15.8163C4.32189 15.8163 4.78167 15.3565 5.14949 14.9887C5.51731 14.6209 5.88513 14.345 6.52881 14.345C7.1725 14.345 7.54032 14.6209 7.90814 14.9887C8.27596 15.3565 8.82769 15.8163 9.74724 15.8163C10.5748 15.8163 11.0346 15.4485 11.4024 15.0806C11.7703 14.7128 12.1381 14.345 12.7818 14.345C13.5174 14.345 13.7933 14.7128 14.1611 15.0806C14.5289 15.4485 14.9887 15.8163 15.8163 15.8163C16.7358 15.8163 17.1956 15.3565 17.5634 14.9887C17.9312 14.6209 18.2991 14.345 18.9428 14.345H19.0347C19.5864 14.345 19.9543 14.7128 20.3221 14.9887C20.6899 15.3565 21.1497 15.8163 22.0692 15.8163C22.9888 15.8163 23.4486 15.3565 23.8164 14.9887C24.1842 14.6209 24.8279 14.345 25.4716 14.345V7.44822L21.0577 7.44836ZM14.1609 12.1382H11.3103C11.1264 12.1382 10.9425 12.3221 10.8506 12.506C10.7586 12.4141 10.7586 12.3221 10.7586 12.2302C10.7586 11.9543 10.9425 11.7704 11.2184 11.7704H14.1609V12.1382ZM14.1609 8.36821H11.3103C11.1264 8.36821 10.9425 8.55212 10.8506 8.73603C10.7586 8.64408 10.7586 8.55212 10.7586 8.46017C10.7586 8.1843 10.9425 8.00039 11.2184 8.00039H14.1609V8.36821ZM14.1609 7.44866H11.4942V5.79347H14.1609V7.44866ZM14.1609 4.59805H11.3103C11.1264 4.59805 10.9425 4.78196 10.8506 4.96587C10.7586 4.87392 10.7586 4.78196 10.7586 4.69001C10.7586 4.41414 10.9425 4.23023 11.2184 4.23023H14.1609V4.59805ZM14.1609 3.6785H11.4942V3.49459C11.4942 2.75895 12.046 2.20722 12.7816 2.20722C13.1494 2.20722 13.4253 2.29917 13.7012 2.57504C13.977 2.8509 14.069 3.12677 14.069 3.49459V3.6785H14.1609ZM12.9655 1.0118C12.2299 1.0118 11.5862 1.37962 11.1264 2.02331C10.7586 2.48308 10.5747 3.03481 10.5747 3.58654V4.04632C10.3908 4.23023 10.2988 4.50609 10.2988 4.78196C10.2988 5.05783 10.3908 5.33369 10.6666 5.5176V7.81648C10.4827 8.00039 10.2988 8.27625 10.2988 8.55212C10.2988 8.82799 10.3908 9.10385 10.6666 9.28776V11.5866C10.4827 11.7705 10.2988 12.0464 10.2988 12.3223C10.2988 12.5981 10.3908 12.874 10.6666 13.0579V15.0809C10.5747 15.1729 10.3908 15.1729 10.2069 15.2648V3.40278C10.2069 1.83954 11.4942 0.644127 12.9655 0.644127C13.7012 0.644127 14.4368 0.919993 14.8966 1.47172C14.8046 1.56368 14.7127 1.74759 14.7127 1.83954C14.1609 1.28781 13.6092 1.0118 12.9655 1.0118ZM18.9425 7.44866H16.2758V3.49444C16.2758 2.7588 16.8275 2.20707 17.5631 2.20707C17.931 2.20707 18.2068 2.29903 18.4827 2.57489C18.7585 2.85076 18.8505 3.12662 18.8505 3.49444V7.44866H18.9425ZM20.4137 7.44866H20.1379V3.77045C20.1379 3.03481 19.862 2.29917 19.4022 1.74744C18.9425 1.19571 18.2988 0.919846 17.6551 0.919846C16.9194 0.919846 16.2758 1.28767 15.816 1.93135C15.4482 2.39113 15.2643 2.94286 15.2643 3.49459V4.32219V14.8972C15.0803 14.8052 14.9884 14.7133 14.8045 14.6213V3.95451V3.12692C14.8964 2.57519 15.0803 2.02345 15.4482 1.56368C15.9999 0.919993 16.7355 0.552172 17.5631 0.552172C18.2988 0.552172 19.0344 0.828038 19.5861 1.37977C20.1379 1.9315 20.4137 2.57519 20.4137 3.40278V7.44866Z"
        fill="white" />
</svg>
