<svg width="20" height="20" viewBox="0 0 20 20" fill="none" xmlns="http://www.w3.org/2000/svg">
    <path fill-rule="evenodd" clip-rule="evenodd"
        d="M15.7876 2.56672C13.5162 2.42681 11.4351 2.5396 10.4866 2.60939C10.0394 2.64246 9.61355 2.80188 9.25713 3.08005C8.24426 3.87121 5.6208 6.05483 2.97265 9.37029C2.39663 10.0913 2.3132 11.0952 2.91124 11.8675C3.36678 12.4555 4.10466 13.3307 5.2874 14.581C6.66404 16.0363 7.63487 16.8125 8.26495 17.2263C8.95677 17.6808 9.76674 17.5227 10.3404 17.0927C13.8596 14.4533 16.1417 11.6879 16.9383 10.6529C17.2008 10.3105 17.3571 9.89979 17.3881 9.47084C17.4582 8.54043 17.575 6.4643 17.4325 4.197C17.4064 3.77299 17.2247 3.3731 16.9216 3.07272C16.6186 2.77235 16.2154 2.59258 15.7876 2.56672Z"
        fill="#8FBFFA" />
    <path fill-rule="evenodd" clip-rule="evenodd"
        d="M15.7876 2.56672C13.5162 2.42681 11.4351 2.5396 10.4866 2.60939C10.0394 2.64246 9.61355 2.80188 9.25713 3.08005C8.24426 3.87121 5.6208 6.05483 2.97265 9.37029C2.39663 10.0913 2.3132 11.0952 2.91124 11.8675C3.36678 12.4555 4.10466 13.3307 5.2874 14.581C6.66404 16.0363 7.63487 16.8125 8.26495 17.2263C8.95677 17.6808 9.76674 17.5227 10.3404 17.0927C13.8596 14.4533 16.1417 11.6879 16.9383 10.6529C17.2008 10.3105 17.3571 9.89979 17.3881 9.47084C17.4582 8.54043 17.575 6.4643 17.4325 4.197C17.4064 3.77299 17.2247 3.3731 16.9216 3.07272C16.6186 2.77235 16.2154 2.59258 15.7876 2.56672Z"
        fill="url(#paint0_radial_2143_30233)" />
    <path fill-rule="evenodd" clip-rule="evenodd"
        d="M13.9609 4.58333C13.9609 4.19656 14.1146 3.82563 14.3881 3.55214C14.6616 3.27865 15.0325 3.125 15.4193 3.125C15.806 3.125 16.177 3.27865 16.4505 3.55214C16.724 3.82563 16.8776 4.19656 16.8776 4.58333C16.8776 4.97011 16.724 5.34104 16.4505 5.61453C16.177 5.88802 15.806 6.04167 15.4193 6.04167C15.0325 6.04167 14.6616 5.88802 14.3881 5.61453C14.1146 5.34104 13.9609 4.97011 13.9609 4.58333Z"
        fill="#2859C5" />
    <path fill-rule="evenodd" clip-rule="evenodd"
        d="M13.9609 4.58333C13.9609 4.19656 14.1146 3.82563 14.3881 3.55214C14.6616 3.27865 15.0325 3.125 15.4193 3.125C15.806 3.125 16.177 3.27865 16.4505 3.55214C16.724 3.82563 16.8776 4.19656 16.8776 4.58333C16.8776 4.97011 16.724 5.34104 16.4505 5.61453C16.177 5.88802 15.806 6.04167 15.4193 6.04167C15.0325 6.04167 14.6616 5.88802 14.3881 5.61453C14.1146 5.34104 13.9609 4.97011 13.9609 4.58333Z"
        fill="url(#paint1_linear_2143_30233)" />
    <defs>
        <radialGradient id="paint0_radial_2143_30233" cx="0" cy="0" r="1"
            gradientUnits="userSpaceOnUse"
            gradientTransform="translate(-3.39239 -5.93774) rotate(51.687) scale(41.4774 37.7265)">
            <stop offset="0.338" stop-color="#0FAFFF" />
            <stop offset="0.529" stop-color="#367AF2" />
        </radialGradient>
        <linearGradient id="paint1_linear_2143_30233" x1="14.8359" y1="2.80125" x2="15.9013"
            y2="6.63667" gradientUnits="userSpaceOnUse">
            <stop stop-color="#FDFDFD" />
            <stop offset="1" stop-color="#B3E0FF" />
        </linearGradient>
    </defs>
</svg>
