<svg width="18" height="18" viewBox="0 0 18 18" fill="none" xmlns="http://www.w3.org/2000/svg">
    <path
        d="M9.1799 1.8853C8.90647 1.61179 8.5356 1.45809 8.14885 1.45801H2.91927C2.5325 1.45801 2.16156 1.61165 1.88807 1.88514C1.61458 2.15863 1.46094 2.52957 1.46094 2.91634V8.14592C1.46102 8.53267 1.61472 8.90354 1.88823 9.17697L8.2349 15.5236C8.56631 15.853 9.01456 16.0378 9.48177 16.0378C9.94899 16.0378 10.3972 15.853 10.7286 15.5236L15.5266 10.7257C15.8559 10.3943 16.0407 9.94606 16.0407 9.47884C16.0407 9.01163 15.8559 8.56338 15.5266 8.23197L9.1799 1.8853Z"
        stroke="#2B7FFF" stroke-width="1.45833" stroke-linecap="round" stroke-linejoin="round" />
    <path
        d="M5.46615 5.83366C5.6675 5.83366 5.83073 5.67043 5.83073 5.46908C5.83073 5.26772 5.6675 5.10449 5.46615 5.10449C5.26479 5.10449 5.10156 5.26772 5.10156 5.46908C5.10156 5.67043 5.26479 5.83366 5.46615 5.83366Z"
        fill="#2B7FFF" stroke="#2B7FFF" stroke-width="1.45833" stroke-linecap="round"
        stroke-linejoin="round" />
</svg>
