<svg width="60" height="67" viewBox="0 0 60 67" fill="none" xmlns="http://www.w3.org/2000/svg">
    <path
        d="M30 58C45.464 58 58 45.464 58 30C58 14.536 45.464 2 30 2C14.536 2 2 14.536 2 30C2 45.464 14.536 58 30 58Z"
        fill="#EE4E2E" stroke="white" stroke-width="2" />
    <path
        d="M20.1256 14.7273V22H18.588V16.1868H18.5454L16.8799 17.2308V15.8672L18.6803 14.7273H20.1256ZM24.7057 22.1598C24.0949 22.1574 23.5693 22.0071 23.129 21.7088C22.691 21.4105 22.3537 20.9785 22.1169 20.4126C21.8825 19.8468 21.7665 19.1662 21.7689 18.3707C21.7689 17.5777 21.8861 16.9018 22.1205 16.343C22.3572 15.7843 22.6946 15.3594 23.1325 15.0682C23.5729 14.7746 24.0973 14.6278 24.7057 14.6278C25.3141 14.6278 25.8373 14.7746 26.2753 15.0682C26.7156 15.3617 27.0542 15.7879 27.2909 16.3466C27.5277 16.9029 27.6449 17.5777 27.6425 18.3707C27.6425 19.1686 27.5241 19.8504 27.2874 20.4162C27.053 20.982 26.7168 21.4141 26.2789 21.7124C25.8409 22.0107 25.3165 22.1598 24.7057 22.1598ZM24.7057 20.8849C25.1224 20.8849 25.455 20.6754 25.7036 20.2564C25.9521 19.8374 26.0753 19.2088 26.0729 18.3707C26.0729 17.8191 26.0161 17.3598 25.9024 16.9929C25.7912 16.6259 25.6325 16.3501 25.4266 16.1655C25.223 15.9808 24.9827 15.8885 24.7057 15.8885C24.2914 15.8885 23.96 16.0956 23.7114 16.5099C23.4628 16.9242 23.3373 17.5445 23.335 18.3707C23.335 18.9295 23.3906 19.3958 23.5019 19.7699C23.6155 20.1416 23.7753 20.4209 23.9813 20.608C24.1872 20.7926 24.4287 20.8849 24.7057 20.8849ZM31.5905 22.1598C30.9797 22.1574 30.4541 22.0071 30.0138 21.7088C29.5758 21.4105 29.2384 20.9785 29.0017 20.4126C28.7673 19.8468 28.6513 19.1662 28.6537 18.3707C28.6537 17.5777 28.7709 16.9018 29.0052 16.343C29.242 15.7843 29.5793 15.3594 30.0173 15.0682C30.4577 14.7746 30.982 14.6278 31.5905 14.6278C32.1989 14.6278 32.7221 14.7746 33.1601 15.0682C33.6004 15.3617 33.939 15.7879 34.1757 16.3466C34.4124 16.9029 34.5296 17.5777 34.5273 18.3707C34.5273 19.1686 34.4089 19.8504 34.1721 20.4162C33.9378 20.982 33.6016 21.4141 33.1636 21.7124C32.7256 22.0107 32.2013 22.1598 31.5905 22.1598ZM31.5905 20.8849C32.0071 20.8849 32.3398 20.6754 32.5883 20.2564C32.8369 19.8374 32.96 19.2088 32.9577 18.3707C32.9577 17.8191 32.9008 17.3598 32.7872 16.9929C32.6759 16.6259 32.5173 16.3501 32.3113 16.1655C32.1077 15.9808 31.8675 15.8885 31.5905 15.8885C31.1762 15.8885 30.8447 16.0956 30.5961 16.5099C30.3476 16.9242 30.2221 17.5445 30.2197 18.3707C30.2197 18.9295 30.2754 19.3958 30.3866 19.7699C30.5003 20.1416 30.6601 20.4209 30.866 20.608C31.072 20.7926 31.3135 20.8849 31.5905 20.8849ZM39.6045 20.6364V20.2528C39.6045 19.9616 39.666 19.6941 39.7892 19.4503C39.9146 19.2041 40.0957 19.0076 40.3325 18.8608C40.5716 18.7116 40.8628 18.6371 41.2061 18.6371C41.5541 18.6371 41.8464 18.7105 42.0832 18.8572C42.3223 19.004 42.5022 19.2005 42.623 19.4467C42.7461 19.6906 42.8076 19.9593 42.8076 20.2528V20.6364C42.8076 20.9276 42.7461 21.1963 42.623 21.4425C42.4999 21.6863 42.3187 21.8816 42.0796 22.0284C41.8405 22.1776 41.5493 22.2521 41.2061 22.2521C40.858 22.2521 40.5657 22.1776 40.3289 22.0284C40.0922 21.8816 39.9123 21.6863 39.7892 21.4425C39.666 21.1963 39.6045 20.9276 39.6045 20.6364ZM40.6379 20.2528V20.6364C40.6379 20.8045 40.6781 20.9631 40.7586 21.1122C40.8415 21.2614 40.9906 21.3359 41.2061 21.3359C41.4215 21.3359 41.5683 21.2625 41.6464 21.1158C41.7269 20.969 41.7671 20.8092 41.7671 20.6364V20.2528C41.7671 20.08 41.7293 19.919 41.6535 19.7699C41.5777 19.6207 41.4286 19.5462 41.2061 19.5462C40.993 19.5462 40.845 19.6207 40.7622 19.7699C40.6793 19.919 40.6379 20.08 40.6379 20.2528ZM35.8722 16.4744V16.0909C35.8722 15.7973 35.935 15.5286 36.0605 15.2848C36.1859 15.0386 36.367 14.8421 36.6038 14.6953C36.8429 14.5485 37.1317 14.4751 37.4703 14.4751C37.8206 14.4751 38.1142 14.5485 38.3509 14.6953C38.5877 14.8421 38.7676 15.0386 38.8907 15.2848C39.0138 15.5286 39.0754 15.7973 39.0754 16.0909V16.4744C39.0754 16.768 39.0126 17.0367 38.8872 17.2805C38.7641 17.5244 38.5829 17.7197 38.3438 17.8665C38.1071 18.0109 37.8159 18.0831 37.4703 18.0831C37.1246 18.0831 36.8322 18.0097 36.5931 17.8629C36.3564 17.7138 36.1765 17.5185 36.0534 17.277C35.9326 17.0331 35.8722 16.7656 35.8722 16.4744ZM36.9127 16.0909V16.4744C36.9127 16.6473 36.953 16.8071 37.0335 16.9538C37.1163 17.1006 37.2619 17.174 37.4703 17.174C37.6881 17.174 37.836 17.1006 37.9142 16.9538C37.9946 16.8071 38.0349 16.6473 38.0349 16.4744V16.0909C38.0349 15.9181 37.997 15.7571 37.9213 15.608C37.8455 15.4588 37.6952 15.3842 37.4703 15.3842C37.2596 15.3842 37.114 15.46 37.0335 15.6115C36.953 15.763 36.9127 15.9228 36.9127 16.0909ZM36.341 22L41.341 14.7273H42.2714L37.2714 22H36.341Z"
        fill="white" />
    <path
        d="M13.5604 26.1818L15.2876 31.0795H15.3558L17.0831 26.1818H17.8217L15.6854 32H14.9581L12.8217 26.1818H13.5604ZM18.728 32V26.1818H22.2393V26.8068H19.4325V28.7727H22.0575V29.3977H19.4325V31.375H22.2848V32H18.728ZM23.5092 32V26.1818H25.4751C25.9297 26.1818 26.3028 26.2595 26.5945 26.4148C26.8861 26.5682 27.102 26.7794 27.2422 27.0483C27.3823 27.3172 27.4524 27.6231 27.4524 27.9659C27.4524 28.3087 27.3823 28.6127 27.2422 28.8778C27.102 29.143 26.8871 29.3513 26.5973 29.5028C26.3075 29.6525 25.9373 29.7273 25.4865 29.7273H23.8956V29.0909H25.4638C25.7744 29.0909 26.0244 29.0455 26.2138 28.9545C26.4051 28.8636 26.5433 28.7348 26.6286 28.5682C26.7157 28.3996 26.7592 28.1989 26.7592 27.9659C26.7592 27.733 26.7157 27.5294 26.6286 27.3551C26.5414 27.1809 26.4022 27.0464 26.2109 26.9517C26.0196 26.8551 25.7668 26.8068 25.4524 26.8068H24.2138V32H23.5092ZM26.2479 29.3864L27.6797 32H26.8615L25.4524 29.3864H26.2479ZM29.331 26.1818V32H28.6264V26.1818H29.331ZM30.7436 32V26.1818H34.2322V26.8068H31.4482V28.7727H33.9709V29.3977H31.4482V32H30.7436ZM36.1435 26.1818V32H35.4389V26.1818H36.1435ZM37.5561 32V26.1818H41.0675V26.8068H38.2607V28.7727H40.8857V29.3977H38.2607V31.375H41.1129V32H37.5561ZM44.1328 32H42.3374V26.1818H44.2124C44.7768 26.1818 45.2597 26.2983 45.6612 26.5312C46.0627 26.7623 46.3705 27.0947 46.5845 27.5284C46.7985 27.9602 46.9055 28.4773 46.9055 29.0795C46.9055 29.6856 46.7976 30.2074 46.5817 30.6449C46.3658 31.0805 46.0514 31.4157 45.6385 31.6506C45.2256 31.8835 44.7237 32 44.1328 32ZM43.0419 31.375H44.0874C44.5684 31.375 44.9671 31.2822 45.2834 31.0966C45.5997 30.911 45.8355 30.6468 45.9908 30.304C46.1461 29.9612 46.2237 29.553 46.2237 29.0795C46.2237 28.6098 46.147 28.2055 45.9936 27.8665C45.8402 27.5256 45.611 27.2642 45.3061 27.0824C45.0012 26.8987 44.6214 26.8068 44.1669 26.8068H43.0419V31.375Z"
        fill="white" />
    <path
        d="M11.24 40V34.9091H12.9602C13.3596 34.9091 13.686 34.9812 13.9396 35.1254C14.1948 35.2679 14.3837 35.4609 14.5063 35.7045C14.629 35.9482 14.6903 36.2199 14.6903 36.5199C14.6903 36.8198 14.629 37.0924 14.5063 37.3377C14.3854 37.583 14.1981 37.7785 13.9446 37.9244C13.691 38.0685 13.3662 38.1406 12.9701 38.1406H11.7372V37.5938H12.9502C13.2237 37.5938 13.4433 37.5465 13.609 37.4521C13.7747 37.3576 13.8948 37.23 13.9694 37.0692C14.0456 36.9068 14.0838 36.7237 14.0838 36.5199C14.0838 36.3161 14.0456 36.1338 13.9694 35.973C13.8948 35.8123 13.7739 35.6863 13.6065 35.5952C13.4391 35.5024 13.217 35.456 12.9403 35.456H11.8565V40H11.24ZM15.6834 40V34.9091H17.4035C17.8013 34.9091 18.1277 34.977 18.3829 35.1129C18.6382 35.2472 18.8271 35.4319 18.9497 35.6673C19.0723 35.9026 19.1337 36.1702 19.1337 36.4702C19.1337 36.7701 19.0723 37.0361 18.9497 37.2681C18.8271 37.5001 18.639 37.6824 18.3854 37.815C18.1319 37.9459 17.8079 38.0114 17.4135 38.0114H16.0214V37.4545H17.3936C17.6654 37.4545 17.8841 37.4148 18.0498 37.3352C18.2172 37.2557 18.3382 37.143 18.4128 36.9972C18.489 36.8497 18.5271 36.674 18.5271 36.4702C18.5271 36.2663 18.489 36.0882 18.4128 35.9357C18.3365 35.7833 18.2147 35.6656 18.0474 35.5827C17.88 35.4982 17.6588 35.456 17.3837 35.456H16.2998V40H15.6834ZM18.0797 37.7131L19.3325 40H18.6166L17.3837 37.7131H18.0797ZM24.4564 37.4545C24.4564 37.9915 24.3594 38.4555 24.1655 38.8466C23.9716 39.2377 23.7057 39.5393 23.3676 39.7514C23.0295 39.9635 22.6434 40.0696 22.2092 40.0696C21.775 40.0696 21.3889 39.9635 21.0508 39.7514C20.7128 39.5393 20.4468 39.2377 20.2529 38.8466C20.059 38.4555 19.962 37.9915 19.962 37.4545C19.962 36.9176 20.059 36.4536 20.2529 36.0625C20.4468 35.6714 20.7128 35.3698 21.0508 35.1577C21.3889 34.9455 21.775 34.8395 22.2092 34.8395C22.6434 34.8395 23.0295 34.9455 23.3676 35.1577C23.7057 35.3698 23.9716 35.6714 24.1655 36.0625C24.3594 36.4536 24.4564 36.9176 24.4564 37.4545ZM23.8598 37.4545C23.8598 37.0137 23.786 36.6417 23.6385 36.3384C23.4927 36.0352 23.2947 35.8056 23.0444 35.6499C22.7959 35.4941 22.5174 35.4162 22.2092 35.4162C21.901 35.4162 21.6217 35.4941 21.3715 35.6499C21.1229 35.8056 20.9249 36.0352 20.7774 36.3384C20.6316 36.6417 20.5586 37.0137 20.5586 37.4545C20.5586 37.8954 20.6316 38.2674 20.7774 38.5707C20.9249 38.8739 21.1229 39.1035 21.3715 39.2592C21.6217 39.415 21.901 39.4929 22.2092 39.4929C22.5174 39.4929 22.7959 39.415 23.0444 39.2592C23.2947 39.1035 23.4927 38.8739 23.6385 38.5707C23.786 38.2674 23.8598 37.8954 23.8598 37.4545ZM25.4625 34.9091L26.9739 39.1946H27.0335L28.5449 34.9091H29.1912L27.3219 40H26.6855L24.8162 34.9091H25.4625ZM30.6006 34.9091V40H29.9842V34.9091H30.6006ZM33.4077 40H31.8367V34.9091H33.4773C33.9712 34.9091 34.3937 35.011 34.7451 35.2148C35.0964 35.417 35.3657 35.7079 35.553 36.0874C35.7402 36.4652 35.8339 36.9176 35.8339 37.4446C35.8339 37.9749 35.7394 38.4315 35.5505 38.8143C35.3616 39.1954 35.0865 39.4888 34.7252 39.6942C34.3639 39.8981 33.9248 40 33.4077 40ZM32.4532 39.4531H33.3679C33.7889 39.4531 34.1377 39.3719 34.4145 39.2095C34.6912 39.0471 34.8975 38.8159 35.0334 38.516C35.1693 38.216 35.2373 37.8589 35.2373 37.4446C35.2373 37.0336 35.1701 36.6798 35.0359 36.3832C34.9017 36.0849 34.7012 35.8562 34.4343 35.6971C34.1675 35.5363 33.8353 35.456 33.4375 35.456H32.4532V39.4531ZM36.8679 40V34.9091H39.9404V35.456H37.4844V37.1761H39.7813V37.723H37.4844V39.4531H39.9802V40H36.8679ZM41.0515 40V34.9091H42.7717C43.1694 34.9091 43.4959 34.977 43.7511 35.1129C44.0063 35.2472 44.1952 35.4319 44.3179 35.6673C44.4405 35.9026 44.5018 36.1702 44.5018 36.4702C44.5018 36.7701 44.4405 37.0361 44.3179 37.2681C44.1952 37.5001 44.0071 37.6824 43.7536 37.815C43.5 37.9459 43.1761 38.0114 42.7816 38.0114H41.3896V37.4545H42.7618C43.0335 37.4545 43.2523 37.4148 43.418 37.3352C43.5854 37.2557 43.7064 37.143 43.7809 36.9972C43.8572 36.8497 43.8953 36.674 43.8953 36.4702C43.8953 36.2663 43.8572 36.0882 43.7809 35.9357C43.7047 35.7833 43.5829 35.6656 43.4155 35.5827C43.2482 35.4982 43.0269 35.456 42.7518 35.456H41.668V40H41.0515ZM43.4478 37.7131L44.7007 40H43.9848L42.7518 37.7131H43.4478ZM48.3132 36.1818C48.2833 35.9299 48.1624 35.7344 47.9502 35.5952C47.7381 35.456 47.4779 35.3864 47.1697 35.3864C46.9443 35.3864 46.7471 35.4228 46.5781 35.4957C46.4107 35.5687 46.2798 35.6689 46.1853 35.7965C46.0925 35.9241 46.0461 36.0691 46.0461 36.2315C46.0461 36.3674 46.0784 36.4843 46.1431 36.582C46.2094 36.6781 46.2939 36.7585 46.3966 36.8232C46.4994 36.8861 46.6071 36.9383 46.7198 36.9798C46.8325 37.0195 46.936 37.0518 47.0305 37.0767L47.5475 37.2159C47.6801 37.2507 47.8276 37.2988 47.99 37.3601C48.1541 37.4214 48.3107 37.5051 48.4598 37.6112C48.6106 37.7156 48.7349 37.8498 48.8327 38.0138C48.9305 38.1779 48.9794 38.3793 48.9794 38.6179C48.9794 38.893 48.9073 39.1416 48.7631 39.3636C48.6206 39.5857 48.4118 39.7622 48.1367 39.8931C47.8632 40.024 47.531 40.0895 47.1399 40.0895C46.7753 40.0895 46.4596 40.0307 46.1928 39.913C45.9276 39.7953 45.7188 39.6313 45.5664 39.4208C45.4156 39.2103 45.3302 38.9659 45.3103 38.6875H45.9467C45.9633 38.8797 46.0279 39.0388 46.1406 39.1648C46.2549 39.2891 46.3991 39.3819 46.5731 39.4432C46.7488 39.5028 46.9377 39.5327 47.1399 39.5327C47.3752 39.5327 47.5865 39.4946 47.7737 39.4183C47.961 39.3404 48.1093 39.2327 48.2187 39.0952C48.3281 38.956 48.3828 38.7936 48.3828 38.608C48.3828 38.4389 48.3355 38.3014 48.2411 38.1953C48.1466 38.0893 48.0223 38.0031 47.8682 37.9368C47.7141 37.8705 47.5475 37.8125 47.3686 37.7628L46.7421 37.5838C46.3444 37.4695 46.0295 37.3062 45.7975 37.0941C45.5655 36.882 45.4495 36.6044 45.4495 36.2614C45.4495 35.9763 45.5266 35.7277 45.6807 35.5156C45.8365 35.3018 46.0453 35.1361 46.3071 35.0185C46.5706 34.8991 46.8648 34.8395 47.1896 34.8395C47.5177 34.8395 47.8094 34.8983 48.0646 35.016C48.3198 35.132 48.522 35.2911 48.6711 35.4933C48.8219 35.6954 48.9015 35.925 48.9098 36.1818H48.3132Z"
        fill="white" />
    <g clip-path="url(#clip0_17_2837)">
        <path
            d="M12.3614 60.6694C12.3742 60.6436 12.394 60.6218 12.4185 60.6066C12.4429 60.5914 12.4712 60.5834 12.5 60.5834C12.5288 60.5834 12.557 60.5914 12.5815 60.6066C12.606 60.6218 12.6257 60.6436 12.6385 60.6694L13.3123 62.0341C13.3567 62.1239 13.4222 62.2016 13.5032 62.2606C13.5842 62.3195 13.6784 62.3579 13.7775 62.3724L15.2842 62.5929C15.3128 62.5971 15.3396 62.6091 15.3617 62.6277C15.3837 62.6463 15.4002 62.6707 15.4091 62.6981C15.418 62.7255 15.4191 62.7549 15.4122 62.7829C15.4052 62.8109 15.3906 62.8365 15.37 62.8566L14.2803 63.9177C14.2085 63.9877 14.1547 64.0742 14.1236 64.1696C14.0926 64.265 14.0852 64.3665 14.1021 64.4654L14.3594 65.9646C14.3644 65.9931 14.3613 66.0225 14.3505 66.0494C14.3396 66.0762 14.3214 66.0995 14.298 66.1165C14.2745 66.1336 14.2468 66.1437 14.2179 66.1457C14.189 66.1477 14.1601 66.1415 14.1345 66.1279L12.7876 65.4198C12.6988 65.3732 12.6001 65.3488 12.4998 65.3488C12.3996 65.3488 12.3009 65.3732 12.2121 65.4198L10.8655 66.1279C10.8399 66.1415 10.8111 66.1476 10.7822 66.1455C10.7533 66.1434 10.7256 66.1333 10.7022 66.1163C10.6788 66.0993 10.6607 66.0761 10.6498 66.0492C10.639 66.0224 10.6359 65.9931 10.6409 65.9646L10.8979 64.4657C10.9148 64.3668 10.9075 64.2652 10.8764 64.1697C10.8454 64.0742 10.7916 63.9877 10.7197 63.9177L9.62999 62.8569C9.60916 62.8368 9.5944 62.8112 9.58739 62.7831C9.58038 62.755 9.5814 62.7255 9.59034 62.698C9.59928 62.6704 9.61577 62.646 9.63794 62.6273C9.66011 62.6087 9.68707 62.5967 9.71574 62.5926L11.2222 62.3724C11.3214 62.358 11.4157 62.3197 11.4968 62.2607C11.578 62.2018 11.6436 62.124 11.688 62.0341L12.3614 60.6694Z"
            fill="#FDC700" stroke="#FDC700" stroke-width="0.583333" stroke-linecap="round"
            stroke-linejoin="round" />
    </g>
    <g clip-path="url(#clip1_17_2837)">
        <path
            d="M21.1114 60.6694C21.1242 60.6436 21.144 60.6218 21.1685 60.6066C21.1929 60.5914 21.2212 60.5834 21.25 60.5834C21.2788 60.5834 21.307 60.5914 21.3315 60.6066C21.356 60.6218 21.3757 60.6436 21.3885 60.6694L22.0623 62.0341C22.1067 62.1239 22.1722 62.2016 22.2532 62.2606C22.3342 62.3195 22.4284 62.3579 22.5275 62.3724L24.0342 62.5929C24.0628 62.5971 24.0896 62.6091 24.1117 62.6277C24.1337 62.6463 24.1502 62.6707 24.1591 62.6981C24.168 62.7255 24.1691 62.7549 24.1622 62.7829C24.1552 62.8109 24.1406 62.8365 24.12 62.8566L23.0303 63.9177C22.9585 63.9877 22.9047 64.0742 22.8736 64.1696C22.8426 64.265 22.8352 64.3665 22.8521 64.4654L23.1094 65.9646C23.1144 65.9931 23.1113 66.0225 23.1005 66.0494C23.0896 66.0762 23.0714 66.0995 23.048 66.1165C23.0245 66.1336 22.9968 66.1437 22.9679 66.1457C22.939 66.1477 22.9101 66.1415 22.8845 66.1279L21.5376 65.4198C21.4488 65.3732 21.3501 65.3488 21.2498 65.3488C21.1496 65.3488 21.0509 65.3732 20.9621 65.4198L19.6155 66.1279C19.5899 66.1415 19.5611 66.1476 19.5322 66.1455C19.5033 66.1434 19.4756 66.1333 19.4522 66.1163C19.4288 66.0993 19.4107 66.0761 19.3998 66.0492C19.389 66.0224 19.3859 65.9931 19.3909 65.9646L19.6479 64.4657C19.6648 64.3668 19.6575 64.2652 19.6264 64.1697C19.5954 64.0742 19.5416 63.9877 19.4697 63.9177L18.38 62.8569C18.3592 62.8368 18.3444 62.8112 18.3374 62.7831C18.3304 62.755 18.3314 62.7255 18.3403 62.698C18.3493 62.6704 18.3658 62.646 18.3879 62.6273C18.4101 62.6087 18.4371 62.5967 18.4657 62.5926L19.9722 62.3724C20.0714 62.358 20.1657 62.3197 20.2468 62.2607C20.328 62.2018 20.3936 62.124 20.438 62.0341L21.1114 60.6694Z"
            fill="#FDC700" stroke="#FDC700" stroke-width="0.583333" stroke-linecap="round"
            stroke-linejoin="round" />
    </g>
    <g clip-path="url(#clip2_17_2837)">
        <path
            d="M29.8614 60.6694C29.8742 60.6436 29.894 60.6218 29.9185 60.6066C29.9429 60.5914 29.9712 60.5834 30 60.5834C30.0288 60.5834 30.057 60.5914 30.0815 60.6066C30.106 60.6218 30.1257 60.6436 30.1385 60.6694L30.8123 62.0341C30.8567 62.1239 30.9222 62.2016 31.0032 62.2606C31.0842 62.3195 31.1784 62.3579 31.2775 62.3724L32.7842 62.5929C32.8128 62.5971 32.8396 62.6091 32.8617 62.6277C32.8837 62.6463 32.9002 62.6707 32.9091 62.6981C32.918 62.7255 32.9191 62.7549 32.9122 62.7829C32.9052 62.8109 32.8906 62.8365 32.87 62.8566L31.7803 63.9177C31.7085 63.9877 31.6547 64.0742 31.6236 64.1696C31.5926 64.265 31.5852 64.3665 31.6021 64.4654L31.8594 65.9646C31.8644 65.9931 31.8613 66.0225 31.8505 66.0494C31.8396 66.0762 31.8214 66.0995 31.798 66.1165C31.7745 66.1336 31.7468 66.1437 31.7179 66.1457C31.689 66.1477 31.6601 66.1415 31.6345 66.1279L30.2876 65.4198C30.1988 65.3732 30.1001 65.3488 29.9998 65.3488C29.8996 65.3488 29.8009 65.3732 29.7121 65.4198L28.3655 66.1279C28.3399 66.1415 28.3111 66.1476 28.2822 66.1455C28.2533 66.1434 28.2256 66.1333 28.2022 66.1163C28.1788 66.0993 28.1607 66.0761 28.1498 66.0492C28.139 66.0224 28.1359 65.9931 28.1409 65.9646L28.3979 64.4657C28.4148 64.3668 28.4075 64.2652 28.3764 64.1697C28.3454 64.0742 28.2916 63.9877 28.2197 63.9177L27.13 62.8569C27.1092 62.8368 27.0944 62.8112 27.0874 62.7831C27.0804 62.755 27.0814 62.7255 27.0903 62.698C27.0993 62.6704 27.1158 62.646 27.1379 62.6273C27.1601 62.6087 27.1871 62.5967 27.2157 62.5926L28.7222 62.3724C28.8214 62.358 28.9157 62.3197 28.9968 62.2607C29.078 62.2018 29.1436 62.124 29.188 62.0341L29.8614 60.6694Z"
            fill="#FDC700" stroke="#FDC700" stroke-width="0.583333" stroke-linecap="round"
            stroke-linejoin="round" />
    </g>
    <g clip-path="url(#clip3_17_2837)">
        <path
            d="M38.6114 60.6694C38.6242 60.6436 38.644 60.6218 38.6685 60.6066C38.6929 60.5914 38.7212 60.5834 38.75 60.5834C38.7788 60.5834 38.807 60.5914 38.8315 60.6066C38.856 60.6218 38.8757 60.6436 38.8885 60.6694L39.5623 62.0341C39.6067 62.1239 39.6722 62.2016 39.7532 62.2606C39.8342 62.3195 39.9284 62.3579 40.0275 62.3724L41.5342 62.5929C41.5628 62.5971 41.5896 62.6091 41.6117 62.6277C41.6337 62.6463 41.6502 62.6707 41.6591 62.6981C41.668 62.7255 41.6691 62.7549 41.6622 62.7829C41.6552 62.8109 41.6406 62.8365 41.62 62.8566L40.5303 63.9177C40.4585 63.9877 40.4047 64.0742 40.3736 64.1696C40.3426 64.265 40.3352 64.3665 40.3521 64.4654L40.6094 65.9646C40.6144 65.9931 40.6113 66.0225 40.6005 66.0494C40.5896 66.0762 40.5714 66.0995 40.548 66.1165C40.5245 66.1336 40.4968 66.1437 40.4679 66.1457C40.439 66.1477 40.4101 66.1415 40.3845 66.1279L39.0376 65.4198C38.9488 65.3732 38.8501 65.3488 38.7498 65.3488C38.6496 65.3488 38.5509 65.3732 38.4621 65.4198L37.1155 66.1279C37.0899 66.1415 37.0611 66.1476 37.0322 66.1455C37.0033 66.1434 36.9756 66.1333 36.9522 66.1163C36.9288 66.0993 36.9107 66.0761 36.8998 66.0492C36.889 66.0224 36.8859 65.9931 36.8909 65.9646L37.1479 64.4657C37.1648 64.3668 37.1575 64.2652 37.1264 64.1697C37.0954 64.0742 37.0416 63.9877 36.9697 63.9177L35.88 62.8569C35.8592 62.8368 35.8444 62.8112 35.8374 62.7831C35.8304 62.755 35.8314 62.7255 35.8403 62.698C35.8493 62.6704 35.8658 62.646 35.8879 62.6273C35.9101 62.6087 35.9371 62.5967 35.9657 62.5926L37.4722 62.3724C37.5714 62.358 37.6657 62.3197 37.7468 62.2607C37.828 62.2018 37.8936 62.124 37.938 62.0341L38.6114 60.6694Z"
            fill="#FDC700" stroke="#FDC700" stroke-width="0.583333" stroke-linecap="round"
            stroke-linejoin="round" />
    </g>
    <g clip-path="url(#clip4_17_2837)">
        <path
            d="M47.3614 60.6694C47.3742 60.6436 47.394 60.6218 47.4185 60.6066C47.4429 60.5914 47.4712 60.5834 47.5 60.5834C47.5288 60.5834 47.557 60.5914 47.5815 60.6066C47.606 60.6218 47.6257 60.6436 47.6385 60.6694L48.3123 62.0341C48.3567 62.1239 48.4222 62.2016 48.5032 62.2606C48.5842 62.3195 48.6784 62.3579 48.7775 62.3724L50.2842 62.5929C50.3128 62.5971 50.3396 62.6091 50.3617 62.6277C50.3837 62.6463 50.4002 62.6707 50.4091 62.6981C50.418 62.7255 50.4191 62.7549 50.4122 62.7829C50.4052 62.8109 50.3906 62.8365 50.37 62.8566L49.2803 63.9177C49.2085 63.9877 49.1547 64.0742 49.1236 64.1696C49.0926 64.265 49.0852 64.3665 49.1021 64.4654L49.3594 65.9646C49.3644 65.9931 49.3613 66.0225 49.3505 66.0494C49.3396 66.0762 49.3214 66.0995 49.298 66.1165C49.2745 66.1336 49.2468 66.1437 49.2179 66.1457C49.189 66.1477 49.1601 66.1415 49.1345 66.1279L47.7876 65.4198C47.6988 65.3732 47.6001 65.3488 47.4998 65.3488C47.3996 65.3488 47.3009 65.3732 47.2121 65.4198L45.8655 66.1279C45.8399 66.1415 45.8111 66.1476 45.7822 66.1455C45.7533 66.1434 45.7256 66.1333 45.7022 66.1163C45.6788 66.0993 45.6607 66.0761 45.6498 66.0492C45.639 66.0224 45.6359 65.9931 45.6409 65.9646L45.8979 64.4657C45.9148 64.3668 45.9075 64.2652 45.8764 64.1697C45.8454 64.0742 45.7916 63.9877 45.7197 63.9177L44.63 62.8569C44.6092 62.8368 44.5944 62.8112 44.5874 62.7831C44.5804 62.755 44.5814 62.7255 44.5903 62.698C44.5993 62.6704 44.6158 62.646 44.6379 62.6273C44.6601 62.6087 44.6871 62.5967 44.7157 62.5926L46.2222 62.3724C46.3214 62.358 46.4157 62.3197 46.4968 62.2607C46.578 62.2018 46.6436 62.124 46.688 62.0341L47.3614 60.6694Z"
            fill="#FDC700" stroke="#FDC700" stroke-width="0.583333" stroke-linecap="round"
            stroke-linejoin="round" />
    </g>
    <defs>
        <clipPath id="clip0_17_2837">
            <rect width="7" height="7" fill="white" transform="translate(9 60)" />
        </clipPath>
        <clipPath id="clip1_17_2837">
            <rect width="7" height="7" fill="white" transform="translate(17.75 60)" />
        </clipPath>
        <clipPath id="clip2_17_2837">
            <rect width="7" height="7" fill="white" transform="translate(26.5 60)" />
        </clipPath>
        <clipPath id="clip3_17_2837">
            <rect width="7" height="7" fill="white" transform="translate(35.25 60)" />
        </clipPath>
        <clipPath id="clip4_17_2837">
            <rect width="7" height="7" fill="white" transform="translate(44 60)" />
        </clipPath>
    </defs>
</svg>
