<svg width="14" height="14" viewBox="0 0 14 14" fill="none" xmlns="http://www.w3.org/2000/svg">
    <g clip-path="url(#clip0_63_1442)">
        <path
            d="M11.6668 7.58333C11.6668 10.5 9.62516 11.9583 7.1985 12.8042C7.07142 12.8472 6.93339 12.8452 6.80766 12.7983C4.37516 11.9583 2.3335 10.5 2.3335 7.58333V3.49999C2.3335 3.34528 2.39495 3.19691 2.50435 3.08751C2.61375 2.97812 2.76212 2.91666 2.91683 2.91666C4.0835 2.91666 5.54183 2.21666 6.55683 1.32999C6.68041 1.22441 6.83762 1.1664 7.00016 1.1664C7.16271 1.1664 7.31991 1.22441 7.4435 1.32999C8.46433 2.22249 9.91683 2.91666 11.0835 2.91666C11.2382 2.91666 11.3866 2.97812 11.496 3.08751C11.6054 3.19691 11.6668 3.34528 11.6668 3.49999V7.58333Z"
            stroke="#EE4E2E" stroke-width="1.16667" stroke-linecap="round"
            stroke-linejoin="round" />
    </g>
    <defs>
        <clipPath id="clip0_63_1442">
            <rect width="14" height="14" fill="white" />
        </clipPath>
    </defs>
</svg>
